<svg width="126" height="172" viewBox="0 0 126 172" fill="none" xmlns="http://www.w3.org/2000/svg">
<g filter="url(#filter0_d_113_989)">
<path d="M12.3124 104L15.5435 105.218L25.9536 101.565C25.9536 101.565 28.0969 103.301 29.3639 104.522C30.3133 105.437 31.0526 105.819 31.6972 106.957C31.9542 107.41 32.3992 107.682 32.2357 108.174C32.0982 108.588 31.7557 108.71 31.3383 108.87C30.8167 109.069 30.4584 108.94 29.9023 108.87C28.5965 108.704 27.0305 107.478 26.492 107.826C25.9536 108.174 25.8972 109.002 25.5946 110.087C25.292 111.173 27.4452 114.16 26.492 116.522C26.2292 117.173 26.2418 117.778 25.5946 118.087C25.0917 118.328 24.6969 118.24 24.1587 118.087C23.1585 117.804 22.9834 116.986 22.3638 116.174C21.208 114.66 20.2099 111.826 20.2099 111.826C20.2099 111.826 20.9035 114.026 21.1074 115.479C21.2494 116.49 21.5452 117.097 21.2869 118.087C21.156 118.589 21.1955 119.022 20.7484 119.305C20.449 119.494 20.2084 119.479 19.851 119.479C19.4935 119.479 19.2783 119.449 18.9535 119.305C18.3663 119.043 18.23 118.611 17.8766 118.087C17.3783 117.348 17.3191 116.819 16.9791 116C16.2262 114.186 15.1842 111.305 15.1842 111.305C15.1842 111.305 15.5347 114.513 15.1842 116.522C15.0765 117.139 15.3705 117.751 14.8253 118.087C14.5814 118.238 14.3963 118.261 14.1073 118.261C13.8183 118.261 13.6505 118.207 13.3894 118.087C12.7041 117.773 12.6601 117.175 12.3124 116.522C11.7736 115.51 11.6304 114.859 11.415 113.739C11.0808 112.003 10.9692 110.987 11.0561 109.218C11.1099 108.124 11.1484 107.499 11.415 106.435C11.6608 105.454 12.3124 104 12.3124 104Z" fill="#C0C0C0"/>
<path d="M15.1843 55.3045C15.1843 55.3045 26.5935 43.3915 36.005 38.9566C46.0562 34.2202 64.0053 33.2174 64.0053 33.2174C64.0053 33.2174 71.2913 43.4434 74.7747 50.6088C80.0102 61.3786 83.7488 79.8263 83.7488 79.8263L44.4408 102.261C44.4408 102.261 33.7632 90.4193 28.287 81.9133C21.9979 72.1445 15.1843 55.3045 15.1843 55.3045Z" fill="#CACACA"/>
<path d="M29.1844 36.8695C19.7728 41.3044 8.36371 53.2174 8.36371 53.2174C8.36371 53.2174 15.1773 70.0574 21.4664 79.8262C26.9426 88.3323 37.6201 100.174 37.6201 100.174L44.441 102.261C44.441 102.261 33.7632 90.4193 28.287 81.9132C21.9979 72.1444 15.1843 55.3043 15.1843 55.3043C15.1843 55.3043 26.5934 43.3914 36.005 38.9564C46.0561 34.2201 64.0053 33.2173 64.0053 33.2173C64.0053 33.2173 71.2915 43.4433 74.7747 50.6087C79.6111 60.557 83.17 77.0567 83.6846 79.5158L83.7491 79.4784C83.7491 79.4784 81.4207 62.6521 76.9285 52.8696C73.1105 44.5551 64.0053 33.2173 64.0053 33.2173L57.1847 31.1303C57.1847 31.1303 39.2355 32.1331 29.1844 36.8695Z" fill="#ACAAAA"/>
<path d="M8.36371 53.2175C8.36371 53.2175 15.1773 70.0575 21.4664 79.8263C26.9426 88.3324 37.6201 100.174 37.6201 100.174L44.441 102.261C44.441 102.261 33.7632 90.4193 28.287 81.9133C21.9979 72.1445 15.1843 55.3044 15.1843 55.3044L8.36371 53.2175Z" fill="#BBB8B8"/>
<path d="M20.2098 111.827C20.2098 111.827 21.2078 114.66 22.3636 116.175C22.9833 116.986 23.1584 117.804 24.1585 118.088C24.6968 118.24 25.0915 118.328 25.5944 118.088C26.0974 117.847 25.7167 117.336 25.4153 117.044C25.1139 116.752 24.7144 117.065 24.3384 116.87C23.702 116.541 23.8209 115.9 23.4409 115.305C22.9904 114.6 22.614 114.283 22.1845 113.566C21.8698 113.04 21.9665 112.541 21.4665 112.175C21.0595 111.876 20.2098 111.827 20.2098 111.827Z" fill="#D6D6D6"/>
<path d="M15.1839 111.305C15.1839 111.305 16.2258 114.186 16.9788 116C17.3187 116.82 17.3779 117.348 17.8762 118.087C18.2296 118.612 18.366 119.043 18.9532 119.305C19.2779 119.449 19.4932 119.479 19.8506 119.479C20.208 119.479 20.0504 119.062 20.0304 118.783C19.9927 118.254 20.1748 118.167 19.851 117.74C19.3675 117.101 19.1041 117.22 18.7179 116.522C18.2438 115.665 17.7742 114.615 17.3378 113.74C16.997 113.056 17.3277 112.561 16.7996 112C16.4971 111.679 15.8704 111.376 15.1839 111.305Z" fill="#D6D6D6"/>
<path d="M11.415 106.435C11.1484 107.5 11.1099 108.124 11.0561 109.218C10.9692 110.987 11.0808 112.004 11.415 113.74C11.6304 114.859 11.7736 115.511 12.3124 116.522C12.6601 117.175 12.7041 117.773 13.3894 118.088C13.6505 118.207 13.8183 118.262 14.1073 118.262C14.1073 118.262 13.316 115.959 13.0306 114.435C12.804 113.225 12.5913 112.533 12.6716 111.305C12.7491 110.121 12.9236 109.445 13.3894 108.348C13.9663 106.99 15.5435 105.218 15.5435 105.218L12.3124 104.001C12.3124 104.001 11.6608 105.454 11.415 106.435Z" fill="#D6D6D6"/>
<path d="M26.2096 49.3062C26.1616 48.9926 26.4296 48.7282 26.7457 48.7545C28.0547 48.8634 29.1045 48.8343 30.6205 48.6958C33.8032 48.4048 35.5399 47.7348 38.518 46.6088C39.9501 46.0673 40.7377 45.7192 42.1078 45.0436C44.6903 43.7701 46.064 42.8921 48.3899 41.2175C50.5914 39.6323 52.0169 38.8589 53.697 36.8383C53.8485 36.6561 54.1083 36.5963 54.3112 36.7187C56.4702 38.0202 56.5211 40.2339 57.5438 41.9131C57.5438 41.9131 53.3023 43.4379 50.9027 45.5653C48.3042 47.8692 46.5086 48.7264 43.1847 50.0871C40.0553 51.3682 37.7601 51.9343 34.3897 52.348C31.4559 52.7081 28.2871 54.4349 28.2871 54.4349C27.1902 52.3926 26.4951 51.1718 26.2096 49.3062Z" fill="url(#paint0_linear_113_989)"/>
<path d="M83.2108 127.305C83.3545 126.502 83.2108 125.218 83.2108 125.218L95.775 128.348L94.8775 131.305C94.8775 131.305 99.5801 136.211 100.262 140.175C100.621 142.262 99.5977 146.957 96.4929 146.957C90.9289 146.957 88.7264 144.518 85.5441 140.87C82.7038 137.614 80.0389 134.885 81.2364 130.783C81.6718 129.292 82.9373 128.832 83.2108 127.305Z" fill="#C0C0C0"/>
<path d="M94.8777 131.305L95.7751 128.348H91.2879C91.2879 128.348 90.4285 129.911 90.5699 130.957C90.7521 132.304 91.5799 132.954 92.7238 133.74C93.918 134.559 95.1112 133.974 96.3136 134.783C97.4197 135.527 97.6893 136.327 98.4674 137.392C99.2317 138.437 100.262 140.174 100.262 140.174C99.5802 136.21 94.8777 131.305 94.8777 131.305Z" fill="#9C9C9C"/>
<path d="M83.2107 127.305C82.9373 128.832 81.6718 129.292 81.2364 130.783C80.0389 134.885 82.7038 137.614 85.5441 140.87C88.7264 144.518 90.9289 146.957 96.4929 146.957C96.4929 146.957 92.6266 146.05 90.5699 144.696C88.3113 143.21 87.3501 141.896 85.9032 139.653C84.9561 138.184 84.295 137.348 83.9288 135.653C83.6129 134.19 83.4345 133.242 83.9288 131.827C84.3028 130.756 85.0785 130.428 85.5441 129.392C85.9784 128.425 86.2622 126.783 86.2622 126.783L83.2107 125.218C83.2107 125.218 83.3545 126.502 83.2107 127.305Z" fill="#D6D6D6"/>
<path d="M26.3847 50.2609C27.461 50.6087 29.8101 50.7682 31.5547 50.6087C34.7374 50.3178 36.6169 49.8217 39.595 48.6956C41.0271 48.1541 41.8147 47.806 43.1848 47.1304C45.7673 45.8569 47.5 44.805 49.8259 43.1303C52.1388 41.465 54.8152 39.6521 55.7133 37.9129C56.0723 38.2607 56.4583 39.283 56.8626 40.6955C56.8626 40.6955 54.2365 45.003 51.8369 47.1304C49.2384 49.4343 47.4428 50.2914 44.1189 51.6522C40.9895 52.9333 38.6943 53.4994 35.324 53.9131C32.3901 54.2732 27.7854 53.2174 27.7854 53.2174C27.4257 53.2174 26.5635 51.3043 26.3847 50.2609Z" fill="url(#paint1_linear_113_989)"/>
<path d="M97.5701 34.6088C97.5701 34.6088 98.8032 34.5074 99.5445 34.261C100.375 33.9849 100.811 33.7214 101.519 33.2175C102.318 32.6488 102.607 32.1519 103.314 31.4784C105.435 29.4568 108.878 26.4349 108.878 26.4349C108.878 26.4349 109.545 26.1464 109.955 26.261C110.292 26.3551 110.452 26.5191 110.673 26.7827C110.871 27.0184 110.97 27.1806 111.032 27.4784C111.116 27.8833 110.953 28.1204 110.852 28.5218C110.397 30.3338 108.16 32.4437 108.519 32.6957L108.878 32.8697C109.237 32.8697 110.956 31.2116 112.468 30.4349C113.216 30.0505 113.622 29.7692 114.442 29.5653C115.192 29.379 115.765 28.9863 116.416 29.3914C116.842 29.6559 117.001 29.9624 117.134 30.4349C117.245 30.828 117.183 31.0736 117.134 31.4784C116.866 33.7211 112.45 34.7827 112.827 35.4784C112.944 35.6952 112.96 35.8906 113.186 36.0001C113.545 36.174 114.952 36.0216 116.058 35.8262C117.519 35.568 118.167 34.7281 119.647 34.6088C120.136 34.5694 120.439 34.4559 120.904 34.6088C121.422 34.7795 121.869 34.9591 121.981 35.4784C122.071 35.8989 121.829 36.1422 121.622 36.5219C121.251 37.201 120.812 37.4414 120.186 37.9132C119.196 38.6591 118.476 38.8472 117.314 39.3045C115.628 39.9682 114.421 39.6715 112.827 40.5219C112.077 40.9217 111.032 40.9102 111.032 41.7393C111.032 42.9567 114.615 43.4821 114.981 45.5654C115.086 46.168 115.349 46.6345 114.981 47.1306C114.631 47.6015 114.136 47.5576 113.545 47.6523C112.079 47.8873 111.382 46.8352 109.955 46.4349C108.436 46.0088 107.578 45.7301 106.006 45.5654C104.543 45.412 102.237 45.5654 102.237 45.5654L101.698 37.2175L97.5701 34.6088Z" fill="#C0C0C0"/>
<path d="M119.647 34.6087C118.166 34.728 117.518 35.5679 116.057 35.8261C115.698 36.0001 115.697 36.0008 115.518 36.174L115.518 36.174C115.34 36.3471 115.11 36.4556 115.159 36.6957C115.209 36.9359 115.46 36.9612 115.698 37.0436C116.242 37.232 116.594 36.896 117.134 36.6957C117.573 36.5328 117.763 36.3117 118.211 36.174C118.617 36.0491 118.866 36.0608 119.288 36.0001C119.847 35.9195 120.17 35.9377 120.724 35.8261C121.223 35.7254 122.092 35.9976 121.98 35.4783C121.868 34.959 121.421 34.7794 120.903 34.6087C120.439 34.4557 120.136 34.5693 119.647 34.6087Z" fill="#D6D6D6"/>
<path d="M112.468 30.4349C111.031 31.3045 110.134 32.0002 110.134 32.0002C110.134 32.0002 109.737 32.3212 109.954 32.6958C110.237 33.1843 110.839 33.2096 111.391 33.0436C111.821 32.8589 112.042 32.7144 112.468 32.5219C112.952 32.3034 113.265 32.2642 113.724 32.0002C114.365 31.6316 114.53 31.1676 115.16 30.7828C115.558 30.5399 115.977 30.6407 116.237 30.261C116.435 29.9724 117.068 29.7965 116.417 29.3914C115.765 28.9864 115.192 29.379 114.442 29.5654C113.622 29.7692 113.186 30.0001 112.468 30.4349Z" fill="#D6D6D6"/>
<path d="M99.5444 34.261C98.8031 34.5074 98.2348 34.2067 97.57 34.6088C95.9373 35.5964 99.7999 37.5253 101.698 37.2175C102.754 37.0464 103.058 36.2564 104.032 35.8262C104.576 35.5854 104.983 35.646 105.468 35.3045C105.91 34.9923 106.183 34.7612 106.365 34.261C106.653 33.4687 105.694 33.0042 105.826 32.174C105.987 31.1672 106.818 30.9068 107.442 30.0871C108.008 29.3438 108.217 28.8395 108.878 28.174C109.5 27.5475 110.894 27.0463 110.673 26.7827C110.452 26.5191 110.291 26.3551 109.955 26.261C109.545 26.1464 108.878 26.4349 108.878 26.4349C108.878 26.4349 105.435 29.4568 103.314 31.4784C102.607 32.1519 102.318 32.6488 101.519 33.2175C100.811 33.7214 100.375 33.9849 99.5444 34.261Z" fill="#D6D6D6"/>
<path d="M62.1702 147.76C62.7874 146.918 63.8118 145.646 63.8118 145.646L70.3782 146.703L74.5951 145.218L77.4918 139.131C77.4918 139.131 78.1911 140.837 78.5862 141.949C78.9738 143.039 79.3168 143.627 79.4982 144.766C79.8594 147.035 79.3831 148.415 78.5862 150.577C77.4066 153.778 75.7605 155.195 73.2966 157.621C70.9128 159.968 66.3654 162.728 66.3654 162.728C66.3654 162.728 61.3997 165.038 59.0694 163.432C57.8154 162.567 57.3292 161.685 56.8806 160.262C56.1159 157.836 57.3867 156.286 58.3398 153.923C59.3948 151.307 60.4908 150.051 62.1702 147.76Z" fill="#C0C0C0"/>
<path d="M78.5863 141.949C78.1912 140.837 77.4919 139.131 77.4919 139.131C77.4919 139.131 73.6394 142.77 74.5952 145.218C75.1041 146.521 76.6166 146.517 77.1082 147.827C77.8586 149.826 76.521 151.165 75.4928 153.044C74.672 154.544 73.9735 155.261 72.8004 156.522C71.4716 157.951 70.8727 158.576 69.5696 159.827C68.3533 160.995 66.3655 162.727 66.3655 162.727C66.3655 162.727 70.9128 159.968 73.2967 157.621C75.7606 155.195 77.4067 153.778 78.5863 150.577C79.3832 148.415 79.8595 147.035 79.4983 144.766C79.3169 143.627 78.9738 143.039 78.5863 141.949Z" fill="#9C9C9C"/>
<path d="M62.1707 147.76C60.4912 150.051 59.3952 151.307 58.3402 153.923C57.3871 156.286 56.1174 157.836 56.881 160.262C57.3295 161.687 58.0823 162.957 59.0698 163.432C58.9809 162.887 58.7995 163.174 58.6211 162.088C58.4426 161.002 58.1984 159.965 58.3402 158.609C58.5114 156.973 58.9838 156.101 59.698 154.609C60.4637 153.01 60.8552 152.001 62.1707 150.783C62.7543 150.243 63.1469 150.009 63.8123 149.566C66.1298 148.023 70.8243 148.868 70.3787 146.703C69.8703 144.233 63.8123 145.647 63.8123 145.647C63.8123 145.647 62.7878 146.918 62.1707 147.76Z" fill="#D6D6D6"/>
<path d="M26.9025 51.9415C31.3896 51.9415 32.5593 51.9822 36.0049 51.3045C39.4806 50.6209 41.4291 50.0209 44.6204 48.5219C47.5423 47.1494 49.1483 46.2139 51.6205 44.1741C53.735 42.4293 55.3897 40.6958 56.4667 39.1305C57.1846 40.0001 57.1489 40.3972 57.9026 40.8697C58.1658 41.0347 58.3226 41.1231 58.6205 41.2175C59.9072 41.6254 60.5373 40.3157 61.8513 40.0001C63.4899 39.6066 64.4757 39.775 66.1591 39.6523C69.7998 39.387 71.8513 39.3888 75.4925 39.1305C78.7204 38.9016 80.5583 38.961 83.749 38.4349C88.8853 37.588 91.2891 34.8613 96.4927 34.6088C97.5428 34.5578 98.1587 34.3876 99.1851 34.6088C101.464 35.0997 102.288 36.6135 103.672 38.4349C104.657 39.7315 105.382 40.4976 105.647 42.0871C105.956 43.9416 105.862 45.3822 104.57 46.7828C103.119 48.355 101.196 47.3682 99.1851 48.1741C96.9189 49.0821 96.1483 50.6185 93.8004 51.3045C92.2438 51.7593 91.2464 51.4325 89.6721 51.8263C86.8492 52.5324 85.74 54.0863 83.031 55.1306C81.1155 55.869 80.0317 56.3282 78.0053 56.6959C76.552 56.9596 75.7119 56.9547 74.2361 57.0437C71.4377 57.2125 71.1847 56.348 67.7744 57.0437C67.7744 57.9132 67.7938 58.2279 68.313 58.9567C69.4448 60.5456 70.3187 61.2603 71.5438 62.7828C75.9668 68.2797 76.529 72.7911 81.5951 77.7394C82.2192 78.349 82.7372 78.5495 83.233 79.2612C83.9199 80.2473 83.5146 81.1579 84.1528 82.1742C85.1984 83.839 86.6082 84.1035 88.3821 85.0221C89.6976 85.7033 90.62 85.7259 91.8933 86.4786C93.4146 87.3779 94.0572 88.1793 95.326 89.3917C96.3769 90.3957 96.8373 91.079 97.8838 92.0873C99.3543 93.5042 100.616 93.8836 101.877 95.4786C102.983 96.8773 103.504 97.7924 104.031 99.4787C104.462 100.857 104.649 101.692 104.57 103.131C104.476 104.826 103.797 105.673 103.313 107.305C102.228 110.963 101.958 113.117 100.621 116.696C99.2859 120.269 97.6151 121.925 96.4927 125.566C95.9574 127.302 96.7327 128.801 95.4158 130.088C94.2292 131.247 92.9724 131.275 91.2875 131.305C89.6217 131.335 88.6472 130.988 87.1593 130.261C86.126 129.757 85.5244 129.43 84.7362 128.609C83.7854 127.619 82.4794 126.909 82.3131 125.566C81.7746 121.218 82.5886 119.723 83.5695 116.174C84.0546 114.42 85.1926 113.641 85.2747 111.827C85.3405 110.369 85.1219 109.488 84.467 108.174C81.0566 106.261 79.0823 106.261 72.6207 105.044C72.2617 105.044 71.1847 105.044 70.4668 108.348C70.1078 110.609 70.746 112.827 71.5438 115.827C72.282 118.602 72.4895 120.211 73.3386 122.957C74.4784 126.643 75.5958 128.55 76.9284 132.174C77.5757 133.935 78.2746 134.846 78.5438 136.696C78.7395 138.041 78.7743 138.835 78.5438 140.175C78.1315 142.571 77.5423 144.065 76.031 146.088C75.2457 147.139 74.887 147.926 73.6976 148.522C72.3844 149.181 71.4067 148.841 69.9283 148.87C68.525 148.898 67.7176 148.95 66.3386 148.696C65.1842 148.484 64.4366 148.469 63.4667 147.827C62.563 147.228 62.3209 146.594 61.6719 145.74C59.6462 143.073 58.8871 141.198 57.5436 138.088C55.8226 134.103 55.279 131.696 54.3128 127.479C53.9106 125.723 53.8168 124.713 53.4154 122.957C52.6281 119.514 52.9847 118.759 51.2615 115.653C50.2623 113.852 48.5861 111.883 47.7615 110C46.9664 108.186 47.3134 106.813 46.4153 105.044C45.2555 102.76 45.3384 105.044 42.646 99.8265C40.2315 95.1474 37.261 93.2174 35.8254 88.1743C35.5768 87.3007 35.4802 86.8 35.287 85.9134C35.0512 84.8316 34.9701 84.2153 34.7485 83.1308C34.1342 80.1245 33.851 76.6959 32.9536 75.4785C32.6051 75.4429 32.4062 75.4613 32.0562 75.4785C29.1843 75.6199 31.5654 85.8931 28.8254 91.8265C28.3132 92.9354 27.7251 93.4385 27.3895 94.6091C26.9204 96.2451 27.7581 97.297 27.3895 98.9569C26.9805 100.798 26.518 101.889 25.2356 103.305C24.1066 104.551 23.2727 105.225 21.6458 105.74C19.9132 106.287 18.793 105.91 16.9791 105.74C15.4191 105.593 14.3848 105.808 13.0303 105.044C11.8731 104.391 11.2095 103.808 10.697 102.609C10.1336 101.291 10.8554 100.375 10.697 98.9569C10.5505 97.6459 10.1951 96.9546 9.97903 95.6526C9.78852 94.5047 9.45763 93.8479 9.62005 92.696C9.74007 91.8448 10.1312 91.4445 10.338 90.6091C10.6504 89.3473 10.6679 88.602 10.697 87.3047C10.7337 85.6694 10.2546 84.7644 10.338 83.1308C10.3904 82.1042 10.56 81.5412 10.697 80.5221C11.071 77.7403 10.7818 76.084 11.5944 73.3916C11.8869 72.4225 12.0424 71.8677 12.4919 70.9568C12.9534 70.0215 13.3341 69.5584 13.9278 68.6959C14.6512 67.6449 15.1883 67.1444 15.9022 66.0872C17.4468 63.7997 17.641 62.1464 19.133 59.8263C19.8527 58.7071 20.222 58.0452 21.1073 57.0437C22.6313 55.3197 23.4998 53.9361 25.7741 53.3915C26.188 53.2924 26.5367 53.4968 26.851 53.2176C27.2163 52.893 26.7681 52.4038 26.9025 51.9415Z" fill="url(#paint2_linear_113_989)"/>
<path d="M83.2344 79.2612C82.7386 78.5495 82.2206 78.349 81.5965 77.7394C76.5303 72.7911 75.9681 68.2797 71.5451 62.7828C70.32 61.2603 69.4461 60.5456 68.3143 58.9567C67.7952 58.2279 67.7758 57.0437 67.7758 57.0437C67.7758 57.0437 65.9788 56.6716 65.0829 56.0002C63.0793 54.4984 63.8261 49.9132 63.4675 49.9132C59.6507 49.9136 64.0302 55.668 64.7245 59.3046C65.1421 61.4922 65.311 62.7418 65.9809 64.8698C67.1793 68.6767 68.2286 70.7508 70.4681 74.0872C73.0389 77.9171 74.4221 80.5664 78.5452 82.7829C81.9962 84.6382 90.1573 85.9406 88.3835 85.0221C86.6096 84.1035 85.1998 83.839 84.1542 82.1742C83.516 81.1579 83.9212 80.2473 83.2344 79.2612Z" fill="url(#paint3_linear_113_989)"/>
<path d="M67.7745 57.0437C71.1848 56.348 71.4378 57.2125 74.2361 57.0437C77.0345 56.8749 71.1935 56.3548 69.5694 55.3045C68.3731 54.5309 67.8325 53.9114 66.8771 52.8697C65.8432 51.7425 63.4668 49.9132 63.4668 49.9132C63.4668 49.9132 63.3932 51.8602 63.6465 52.8697C63.9399 54.0392 63.8127 54.9429 64.7234 55.8263C65.5885 56.6654 67.7745 57.0437 67.7745 57.0437Z" fill="url(#paint4_linear_113_989)"/>
<path d="M72.6212 105.044C79.0828 106.261 81.0572 106.261 84.4675 108.174C85.1225 109.488 85.3411 110.369 85.2752 111.827C85.1931 113.641 84.0551 114.42 83.57 116.175C82.5892 119.723 81.7752 121.218 82.3136 125.566C82.4799 126.909 83.786 127.619 84.7367 128.609C85.6875 129.599 86.0605 127.901 86.0829 127.131C86.1061 126.336 85.1432 126.257 84.7367 125.566C83.8952 124.135 83.9919 123.035 84.1085 121.392C84.2621 119.227 85.3716 118.232 86.0829 116.175C86.9421 113.689 88.5097 112.324 88.0573 109.74C87.6894 107.638 86.8465 106.442 85.1854 105.044C83.1268 103.312 81.2692 102.864 78.5444 102.957C76.0846 103.041 73.1593 103.827 72.6212 105.044Z" fill="#B26F34"/>
<path d="M45.5075 64.5222L46.2255 64.0004C46.2255 64.0004 46.4742 66.7563 46.405 68.5222C46.3353 70.2985 46.3865 71.3393 45.8665 73.0439C45.1814 75.2898 43.7669 76.1086 42.8152 78.2613C42.2304 79.5842 41.5588 81.7396 41.5588 81.7396C41.5588 81.7396 40.4355 77.1494 41.0203 75.8265C41.972 73.6738 43.3865 72.855 44.0716 70.6091C44.5916 68.9045 44.5404 67.8637 44.6101 66.0874C45.5075 64.5222 45.5075 64.5222 45.5075 64.5222Z" fill="#D18643"/>
<path d="M26.851 53.2175C26.5367 53.4967 26.188 53.2923 25.7741 53.3914C23.4998 53.936 22.6313 55.3196 21.1074 57.0436C20.222 58.0451 19.8527 58.7069 19.133 59.8262C17.641 62.1463 17.4468 63.7996 15.9022 66.0871C15.1883 67.1443 14.6512 67.6448 13.9278 68.6958C13.3341 69.5583 12.9534 70.0214 12.4919 70.9567C12.0424 71.8676 11.8869 72.4224 11.5944 73.3915C10.7818 76.0839 11.071 77.7402 10.697 80.5219C10.56 81.5411 10.3904 82.1041 10.338 83.1307C10.2546 84.7643 10.7337 85.6693 10.697 87.3046C10.6679 88.6018 10.6504 89.3472 10.338 90.609C10.1312 91.4444 9.74007 91.8447 9.62005 92.6959C9.45763 93.8478 9.78852 94.5046 9.97903 95.6525C10.1951 96.9544 10.5505 97.6458 10.697 98.9568C10.8554 100.375 10.1336 101.291 10.697 102.609C11.2095 103.808 11.8731 104.391 13.0303 105.044C14.3848 105.808 15.4191 105.593 16.9791 105.739C18.5391 105.886 17.2353 98.8189 17.8765 94.4351C18.683 88.9209 19.5409 85.8804 21.1074 80.5219C22.6418 75.273 23.6083 72.3402 25.7741 67.3045C28.2219 61.613 39.0075 55.5881 33.1331 53.2175H26.851Z" fill="#E5A064"/>
<path d="M66.3389 148.696C67.7179 148.95 69.9287 148.87 69.9287 148.87C73.499 147.683 67.6561 143.602 66.3389 140.174C65.1475 137.075 64.4494 135.342 63.467 132.174C62.6745 129.618 62.9337 127.938 61.6722 125.566C60.664 123.67 59.2936 123.102 58.2619 121.218C56.4511 117.912 56.6442 115.553 56.2875 111.826C55.9833 108.648 56.2875 106.845 56.2875 103.652C56.2875 101.139 56.5116 99.7212 56.2875 97.2176C56.0973 95.093 56.8437 93.4277 55.39 91.8263C54.229 90.5473 53.0171 79.2621 51.2618 79.1678C49.2467 79.0595 48.0403 79.7468 46.4156 80.9069C43.5622 82.9443 39.954 94.6089 42.6463 99.8263C45.3386 105.044 45.2558 102.759 46.4156 105.044C47.3137 106.813 46.9667 108.186 47.7618 110C48.5864 111.883 50.2625 113.851 51.2618 115.653C52.985 118.759 52.6284 119.514 53.4157 122.957C53.8171 124.713 53.9109 125.723 54.3131 127.479L54.3411 127.601C55.29 131.742 55.8396 134.141 57.5439 138.087C58.8874 141.198 59.583 143.043 61.6722 145.74C62.3295 146.588 62.5633 147.228 63.467 147.827C64.4369 148.469 65.1845 148.484 66.3389 148.696Z" fill="#E5A064"/>
<path d="M47.2707 52.5307L47.8815 52.1652C47.8815 52.1652 51.1011 56.1312 52.909 58.8423C56.2842 63.9038 57.0869 67.3383 60.0894 72.6156C61.7146 75.4722 62.777 76.9911 64.3976 79.8502C66.7759 84.046 68.7303 86.1842 70.1415 90.7718C71.409 94.8923 71.5776 101.693 71.5776 101.693L70.9668 102.059C70.9668 102.059 70.7982 95.2579 69.5306 91.1374C68.1194 86.5498 66.1651 84.4116 63.7868 80.2157C62.1662 77.3567 61.1038 75.8378 59.4786 72.9812C56.4761 67.7039 55.6733 64.2694 52.2981 59.2078C50.4903 56.4967 47.2707 52.5307 47.2707 52.5307Z" fill="url(#paint5_linear_113_989)"/>
<path d="M57.544 40.6958C57.544 40.6958 58.0852 41.0271 58.4415 41.1479C59.1594 41.3914 59.1313 41.2863 59.5184 41.2174C60.2364 41.0436 60.5538 40.4669 61.3133 40.174C61.7874 39.9911 62.0702 39.9274 62.5697 39.8261C63.4643 39.6448 63.9911 39.7092 64.9031 39.6522C66.5833 39.5472 67.5288 39.5514 69.2108 39.4783C70.683 39.4143 71.5089 39.3868 72.9801 39.3044C74.9445 39.1944 76.0421 39.0775 78.0058 38.9566C79.1971 38.8832 81.0571 38.7827 81.0571 38.7827C81.3836 39.1106 81.4543 39.3916 81.5956 39.8261C82.1627 41.5703 81.1501 42.8954 79.8007 44.1739C78.2789 45.6157 76.7099 45.5032 74.5955 45.7391C71.8575 46.0447 70.3371 45.1419 67.5954 44.8696C62.6368 44.3771 54.8517 44.1739 54.8517 44.1739L56.4671 42.4348L57.544 40.6958Z" fill="#E49046"/>
<path d="M27.031 52.8698C27.031 52.8698 38.0814 53.4596 44.5307 50.9568C50.7384 48.5477 57.6513 40.6959 57.6513 40.6959C57.8117 40.8182 57.9059 40.8815 58.0821 40.9846C58.0821 40.9846 51.085 48.9637 44.9799 51.4785C38.3619 54.2046 26.8512 53.2176 26.8512 53.2176C26.979 53.1023 27.0053 53.0238 27.031 52.8698Z" fill="url(#paint6_linear_113_989)"/>
<path d="M27.031 52.8698C27.031 52.8698 38.0814 53.4596 44.5307 50.9568C50.7384 48.5477 57.6513 40.6959 57.6513 40.6959C57.8117 40.8182 57.9059 40.8815 58.0821 40.9846C58.0821 40.9846 51.085 48.9637 44.9799 51.4785C38.3619 54.2046 26.8512 53.2176 26.8512 53.2176C26.979 53.1023 27.0053 53.0238 27.031 52.8698Z" fill="url(#paint7_linear_113_989)"/>
<path d="M31.5179 64.0004H31.8769C31.8769 64.0004 33.4441 67.7415 33.4923 70.2613C33.5317 72.3186 32.5949 75.4579 32.5949 75.4579C32.247 75.4692 32.3887 75.4683 32.2359 75.4683C32.2359 75.4683 33.2012 72.215 33.1333 70.0874C33.0551 67.6341 31.5179 64.0004 31.5179 64.0004Z" fill="url(#paint8_linear_113_989)"/>
<path d="M4.41069 19.8602C4.90925 17.5834 5.48819 16.3331 6.71423 14.295C7.86949 12.3745 8.74493 11.3975 10.3615 9.77321C12.6433 7.48049 14.1841 6.35636 17.0802 4.72971C19.8749 3.15995 21.6283 2.51127 24.7586 1.59926C28.1738 0.604275 30.1963 0.163822 33.7808 0.0340348C36.6361 -0.0693479 38.2726 0.051224 41.0754 0.555776C42.7521 0.857615 43.7227 0.999013 45.2985 1.59926C46.8158 2.17716 47.6325 2.61361 48.9458 3.51231C52.2979 5.80611 53.2148 8.10613 55.0886 11.5123C56.0635 13.2846 56.4941 14.3341 57.2002 16.208C57.9287 18.1416 58.3799 19.234 58.7359 21.2515C59.2447 24.1354 59.5756 25.9102 58.7359 28.7298C58.0546 31.0173 57.1749 32.1869 55.6645 34.1211C54.316 35.8479 53.4142 36.7533 51.6333 38.1212C49.4268 39.8159 47.8431 40.3528 45.2985 41.5994C42.1714 43.1315 40.4284 44.0909 37.0442 45.0777C32.1494 46.505 29.0088 47.6604 23.9908 46.6429C21.3684 46.1112 19.9329 45.5014 17.6561 44.2081C15.8506 43.1826 14.9621 42.4222 13.4329 41.0777C10.1934 38.2295 8.53617 36.2978 6.71423 32.5559C4.47587 27.9588 3.33148 24.7887 4.41069 19.8602Z" fill="url(#paint9_linear_113_989)"/>
<path d="M7.61478 30.2949L16.4096 44.208C16.4096 44.208 13.7629 44.335 12.2813 43.6863C10.6096 42.9543 9.94717 41.9955 8.87105 40.5558C7.82278 39.1535 7.34252 38.2326 6.89667 36.5558C6.31958 34.3854 7.61478 30.2949 7.61478 30.2949Z" fill="#B7B6B2"/>
<path d="M53.4158 12.6957C53.4158 12.6957 57.0693 13.9346 58.0513 14.6428C58.8872 15.2457 59.2688 15.7154 59.8462 16.5559C60.7553 17.8794 61.0426 18.8091 61.2821 20.382C61.456 21.5242 61.456 22.1963 61.2821 23.3385C61.0426 24.9114 58.0513 29.7393 58.0513 29.7393L53.4158 12.6957Z" fill="#B7B7C3"/>
<g filter="url(#filter1_f_113_989)">
<path d="M56.9745 16.2328L57.7719 15.6862C57.7719 15.6862 58.5525 16.8837 58.9679 17.6904C59.5344 18.7905 59.7938 19.4377 60.164 20.6055C60.3426 21.1691 60.6532 21.4822 60.5626 22.0631C60.474 22.631 59.7653 23.3384 59.7653 23.3384C59.7653 23.3384 59.3601 21.5407 58.9679 20.4233C58.3715 18.7241 56.9745 16.2328 56.9745 16.2328Z" fill="#62635E" fill-opacity="0.5"/>
</g>
<path d="M7.25559 22.6428C7.72175 20.366 8.26307 19.1157 9.40946 17.0776C10.4896 15.1571 11.3082 14.1801 12.8197 12.5558C14.9533 10.2631 16.394 9.13896 19.1019 7.5123C21.715 5.94254 23.3544 5.29387 26.2814 4.38185C29.4747 3.38687 31.3658 2.94642 34.7174 2.81663C37.3872 2.71324 38.9173 2.83382 41.538 3.33837C43.1057 3.64021 44.0133 3.78161 45.4867 4.38185C46.9054 4.95975 47.6691 5.39621 48.897 6.29491C52.0313 8.58871 52.8887 10.8887 54.6407 14.2949C55.5522 16.0672 55.9549 17.1167 56.6151 18.9906C57.2963 20.9243 57.7181 22.0166 58.051 24.0341C58.5267 26.918 58.8361 28.6928 58.051 31.5124C57.414 33.8 56.5914 34.9695 55.1792 36.9038C53.9183 38.6306 53.0751 39.5359 51.4099 40.9038C49.3467 42.5985 47.8659 43.1354 45.4867 44.3821C42.5628 45.9142 40.933 46.8735 37.7687 47.8603C33.1919 49.2877 30.2554 50.443 25.5635 49.4256C23.1114 48.8938 21.7692 48.284 19.6403 46.9908C17.9522 45.9652 17.1214 45.2048 15.6916 43.8603C12.6626 41.0121 11.113 39.0804 9.40946 35.3385C7.31653 30.7414 6.2465 27.5713 7.25559 22.6428Z" fill="url(#paint10_linear_113_989)"/>
<path d="M14.0765 25.7733C15.6918 23.1646 16.3277 22.2702 18.2047 20.382C20.3542 18.2196 21.8342 17.2379 24.4868 15.6863C27.0644 14.1786 28.6574 13.5528 31.4869 12.5558C35.4356 11.1645 37.4099 10.8167 40.6409 10.8167C42.9241 10.8167 44.454 12.1936 45.846 13.9471C47.6408 16.208 48.0473 16.726 49.4358 19.3385C50.5443 21.424 51.7692 24.9037 51.7692 24.9037C51.7692 24.9037 52.6122 27.8599 51.7692 29.4255C49.6153 33.4255 45.793 36.6268 40.6409 39.5125C35.2641 42.524 33.6407 43.6865 25.3843 43.3386C21.4354 42.4691 15.3993 36.8326 14.0765 30.1212C13.7992 28.7139 13.3157 27.0019 14.0765 25.7733Z" fill="url(#paint11_linear_113_989)"/>
<path d="M21.7943 17.2517C24.3944 15.374 26.1733 14.4905 29.1534 13.2517C32.0471 12.0487 33.7464 11.3652 36.8714 10.9908C37.9866 10.8572 39.7433 10.8169 39.7433 10.8169C39.7433 10.8169 33.0663 17.5891 30.7688 22.9908C28.2343 28.9496 28.4354 39.3387 28.4354 39.3387L20.8969 40.0344C20.8969 40.0344 14.2193 28.9284 15.3328 24.3822C15.6917 22.9169 16.709 21.7945 18.0251 20.3821C19.3193 18.9932 20.2458 18.3699 21.7943 17.2517Z" fill="url(#paint12_linear_113_989)"/>
<path fill-rule="evenodd" clip-rule="evenodd" d="M17.6557 20.0946C15.7087 22.0634 15.0489 22.9961 13.3736 25.7161C12.6718 26.8553 12.9908 28.3932 13.2723 29.7518C13.3073 29.9209 13.3417 30.0872 13.3736 30.2497C14.7457 37.2477 21.0071 43.1249 25.1035 44.0315C33.2604 44.377 35.1759 43.2939 40.1585 40.4772L40.9294 40.042C46.2737 37.0331 50.2386 33.6952 52.4727 29.5243C53.3474 27.8919 52.4727 24.8094 52.4727 24.8094C52.4727 24.8094 51.2023 21.1811 50.0524 19.0065C48.612 16.2825 48.1906 15.7424 46.3288 13.385C44.8848 11.5565 43.2978 10.1208 40.9294 10.1208C37.5776 10.1208 35.5296 10.4835 31.4336 11.9342C28.4987 12.9738 26.8461 13.6263 24.1724 15.1984C21.4208 16.8162 19.8857 17.8399 17.6557 20.0946ZM18.2044 20.3818C16.3274 22.27 15.6915 23.1644 14.0761 25.7731C13.3999 26.8654 13.707 28.3399 13.9783 29.6426C14.012 29.805 14.0453 29.9649 14.0761 30.121C15.3992 36.8324 21.4352 42.4689 25.3839 43.3384C33.2474 43.6697 35.0946 42.6311 39.8976 39.9297C40.1374 39.7947 40.3846 39.6556 40.6405 39.5123C45.7927 36.6266 49.6149 33.4253 51.7688 29.4253C52.6119 27.8597 51.7688 24.9035 51.7688 24.9035C51.7688 24.9035 50.5439 21.4238 49.4355 19.3383C48.0469 16.7258 47.6406 16.2078 45.8457 13.9469C44.4536 12.1934 42.9237 10.8165 40.6405 10.8165C37.4097 10.8165 35.4353 11.1643 31.4866 12.5556C28.6571 13.5526 27.0642 14.1784 24.4865 15.6861C21.8341 17.2377 20.354 18.2195 18.2044 20.3818Z" fill="url(#paint13_linear_113_989)"/>
<path d="M95.2141 108.534C96.7241 107.155 98.4113 104.348 98.4113 104.348C98.4113 104.348 98.056 105.437 97.7719 106.111C97.116 107.666 96.5236 108.392 95.2141 109.415C93.9097 110.434 91.5907 110.957 91.5907 110.957C91.5907 110.957 93.9511 109.687 95.2141 108.534Z" fill="#AC7341"/>
<ellipse rx="3.54689" ry="3.52171" transform="matrix(0.782274 -0.613802 0.63752 0.762825 56.0758 53.0963)" fill="#59C7EA"/>
<path d="M53.8907 55.8225L54.1664 54.6153L54.7318 54.6144L55.0337 53.8294L55.7199 53.7126L54.9637 53.1465L57.6108 53.1354L56.1152 52.6224L55.4594 51.1343L57.1466 51.4337L57.4028 50.9587L59.1163 51.2374L59.6602 52.0966L59.8691 53.05L59.1781 55.0889L57.8374 56.2462L56.1757 56.7068L54.295 56.3063L53.8907 55.8225Z" fill="#DBDBDB"/>
<path fill-rule="evenodd" clip-rule="evenodd" d="M57.6674 53.1331L55.6685 53.1504L55.0738 53.1658L55.789 53.7045L55.2767 53.9372L54.8876 54.7719L54.2487 54.8566L53.8647 55.9475L53.953 54.2469L54.6346 54.4692L54.7109 52.8761L55.5426 52.9997L55.5131 52.2467L55.2151 50.7989L55.9668 50.9147L56.9588 51.2887L57.051 50.7107C58.3838 51.0205 59.0722 51.196 59.1161 51.2372C59.1601 51.2783 58.6035 51.2349 57.4464 51.1068L58.1023 52.0326L56.8168 51.7982L55.6421 51.3098L55.9578 52.0741L57.1479 52.328L56.2015 52.6476L57.6674 53.1331Z" fill="white"/>
<path fill-rule="evenodd" clip-rule="evenodd" d="M54.5943 52.8053C54.5943 52.8053 54.1046 52.897 53.895 53.098C53.6854 53.299 53.5714 53.3885 53.5714 53.3885C53.5714 53.3885 53.8428 53.5777 54.0903 53.6028C54.3373 53.5957 54.315 53.6458 54.315 53.6458C53.6938 56.473 55.7827 57.774 58.3075 55.7929C58.3075 55.7929 57.3233 55.5533 56.8814 55.309C56.3267 54.9861 56.5336 54.3676 56.5336 54.3676C56.5336 54.3676 56.8895 54.0682 57.6152 54.1315C57.962 54.1617 58.2456 53.9765 58.266 53.9457C58.316 53.8699 58.214 53.6575 58.214 53.6575C58.214 53.6575 58.342 53.6301 58.3867 53.4123C58.4312 53.1946 58.301 52.8581 58.301 52.8581C58.301 52.8581 57.6975 52.7833 57.4727 52.7403C57.2481 52.6973 56.9067 52.623 56.6951 52.4601C56.4835 52.2971 55.7876 52.0995 55.7876 52.0995C54.0761 51.3553 53.1668 52.1952 52.879 53.0461C52.7536 53.4656 52.7886 54.0884 53.6245 54.3633C53.1474 53.8675 53.1267 53.5566 53.1657 53.3638C53.2972 52.714 54.0304 52.2981 54.5943 52.8053Z" fill="#BC0624"/>
<g filter="url(#filter2_i_113_989)">
<path d="M52.8787 53.0458C53.133 52.1947 54.0271 51.5624 55.1702 51.888C55.1702 51.888 54.7485 52.0977 54.6419 52.3449C54.57 52.5115 54.594 52.805 54.594 52.805C54.0301 52.2978 53.2969 52.7137 53.1654 53.3635C53.1265 53.5564 53.1472 53.8672 53.6243 54.3631C52.7883 54.0881 52.7534 53.4653 52.8787 53.0458Z" fill="#7B5C46"/>
<path d="M52.8787 53.0458C53.133 52.1947 54.0271 51.5624 55.1702 51.888C55.1702 51.888 54.7485 52.0977 54.6419 52.3449C54.57 52.5115 54.594 52.805 54.594 52.805C54.0301 52.2978 53.2969 52.7137 53.1654 53.3635C53.1265 53.5564 53.1472 53.8672 53.6243 54.3631C52.7883 54.0881 52.7534 53.4653 52.8787 53.0458Z" fill="url(#paint14_linear_113_989)"/>
</g>
<path d="M58.1046 53.0488C58.0898 53.0311 58.0865 53.0068 58.0962 52.9862L58.133 52.9079C58.1395 52.8939 58.1494 52.8815 58.1617 52.8719C58.1833 52.8549 58.2111 52.8472 58.2388 52.8505L58.3008 52.8579L58.3238 52.8921C58.3299 52.9013 58.3347 52.9112 58.3381 52.9216C58.3622 52.9971 58.3037 53.0732 58.2223 53.0721L58.152 53.0711C58.1336 53.0709 58.1162 53.0627 58.1046 53.0488Z" fill="#1C1C21"/>
<mask id="mask0_113_989" style="mask-type:alpha" maskUnits="userSpaceOnUse" x="52" y="51" width="4" height="4">
<path d="M52.8786 53.0457C53.1328 52.1946 54.0272 51.5625 55.1702 51.8881L54.5939 52.8049C54.03 52.2978 53.2968 52.7137 53.1653 53.3635C53.1264 53.5563 53.1471 53.8672 53.6242 54.363C52.7882 54.0881 52.7533 53.4652 52.8786 53.0457Z" fill="#7B5C46"/>
<path d="M52.8786 53.0457C53.1328 52.1946 54.0272 51.5625 55.1702 51.8881L54.5939 52.8049C54.03 52.2978 53.2968 52.7137 53.1653 53.3635C53.1264 53.5563 53.1471 53.8672 53.6242 54.363C52.7882 54.0881 52.7533 53.4652 52.8786 53.0457Z" fill="url(#paint15_linear_113_989)"/>
</mask>
<g mask="url(#mask0_113_989)">
<path d="M54.702 51.7914C54.4247 52.2073 54.3277 52.4113 54.4023 52.6689" stroke="#372620" stroke-width="0.1" stroke-miterlimit="2.6131"/>
<path d="M54.702 51.7914C54.4247 52.2073 54.3277 52.4113 54.4023 52.6689" stroke="url(#paint16_linear_113_989)" stroke-width="0.1" stroke-miterlimit="2.6131"/>
<path d="M54.1686 51.8307C54.1063 52.1143 54.0264 52.3098 54.1407 52.5894" stroke="#372620" stroke-width="0.1" stroke-miterlimit="2.6131"/>
<path d="M54.1686 51.8307C54.1063 52.1143 54.0264 52.3098 54.1407 52.5894" stroke="url(#paint17_linear_113_989)" stroke-width="0.1" stroke-miterlimit="2.6131"/>
<path d="M53.6099 52.0686C53.6465 52.3067 53.6998 52.4213 53.8637 52.6107" stroke="#372620" stroke-width="0.1" stroke-miterlimit="2.6131"/>
<path d="M53.6099 52.0686C53.6465 52.3067 53.6998 52.4213 53.8637 52.6107" stroke="url(#paint18_linear_113_989)" stroke-width="0.1" stroke-miterlimit="2.6131"/>
<path d="M53.2687 52.3346C53.3852 52.5322 53.4443 52.5949 53.6235 52.7264" stroke="#372620" stroke-width="0.1" stroke-miterlimit="2.6131"/>
<path d="M53.2687 52.3346C53.3852 52.5322 53.4443 52.5949 53.6235 52.7264" stroke="url(#paint19_linear_113_989)" stroke-width="0.1" stroke-miterlimit="2.6131"/>
<path d="M53.0727 52.5787C53.1647 52.7501 53.2444 52.8207 53.4203 52.9072" stroke="#372620" stroke-width="0.1" stroke-miterlimit="2.6131"/>
<path d="M53.0727 52.5787C53.1647 52.7501 53.2444 52.8207 53.4203 52.9072" stroke="url(#paint20_linear_113_989)" stroke-width="0.1" stroke-miterlimit="2.6131"/>
<path d="M52.8963 52.9026C52.8655 52.9629 53.2876 53.2259 53.2531 53.1373" stroke="#372620" stroke-width="0.1" stroke-miterlimit="2.6131"/>
<path d="M52.8963 52.9026C52.8655 52.9629 53.2876 53.2259 53.2531 53.1373" stroke="url(#paint21_linear_113_989)" stroke-width="0.1" stroke-miterlimit="2.6131"/>
<path d="M52.8015 53.2742C52.9371 53.3623 53.0203 53.3935 53.1786 53.4083" stroke="#372620" stroke-width="0.1" stroke-miterlimit="2.6131"/>
<path d="M52.8015 53.2742C52.9371 53.3623 53.0203 53.3935 53.1786 53.4083" stroke="url(#paint22_linear_113_989)" stroke-width="0.1" stroke-miterlimit="2.6131"/>
</g>
<path d="M58.3075 55.7933C55.732 56.2963 55.3056 54.4244 55.4143 53.4256C55.3692 53.8405 55.69 54.2071 55.8687 54.334C56.0259 54.4804 56.3659 54.4472 56.5225 54.4087C56.4314 54.7989 56.6498 55.1124 56.7825 55.219C56.9651 55.3658 58.3075 55.7933 58.3075 55.7933Z" fill="#8F0018"/>
<g filter="url(#filter3_i_113_989)">
<path fill-rule="evenodd" clip-rule="evenodd" d="M56.5285 52.9136C56.5285 52.9136 56.3518 52.8362 56.2741 52.8838C56.1964 52.9314 56.1982 52.9844 56.1419 53.0295C56.0854 53.0745 56.0428 53.0797 56.0428 53.0797C56.0428 53.0797 56.1825 53.1463 56.3001 53.1015C56.4175 53.0567 56.5063 52.9773 56.5063 52.9773L56.5285 52.9136Z" fill="#A4001B"/>
</g>
<g filter="url(#filter4_i_113_989)">
<path fill-rule="evenodd" clip-rule="evenodd" d="M57.5702 53.774C57.5702 53.774 57.5904 53.7207 57.8152 53.6843C58.0401 53.6479 58.213 53.6577 58.213 53.6577" fill="#AD0420"/>
</g>
<path d="M54.3149 53.6465C54.4583 53.6896 54.5617 53.6755 54.6763 53.6378C54.5394 53.729 54.4139 53.7667 54.2967 53.7333C54.3018 53.709 54.3092 53.6709 54.3149 53.6465Z" fill="url(#paint23_linear_113_989)" fill-opacity="0.3"/>
<g filter="url(#filter5_i_113_989)">
<path d="M53.7514 53.4933C53.7514 53.4933 53.7932 53.5119 53.9294 53.3654C54.0656 53.2189 54.185 53.1117 54.397 53.0997C54.4203 53.0984 54.7779 53.1855 54.789 52.8934C54.8195 52.9226 54.7105 53.2611 54.8544 53.4854C54.629 53.7888 54.3149 53.6465 54.3149 53.6465C54.3149 53.6465 54.2773 53.6077 54.0906 53.6032C53.904 53.5987 53.7514 53.4933 53.7514 53.4933Z" fill="#AD0420"/>
</g>
<g filter="url(#filter6_i_113_989)">
<path d="M56.2404 52.9766C56.3102 52.8744 56.4311 52.9233 56.4311 52.9233C56.3971 52.9065 56.2864 52.9647 56.3076 53.0132C56.3226 53.0476 56.4201 52.9764 56.4262 52.9694C56.4225 52.9756 56.325 53.0707 56.2738 53.0799C56.2226 53.0892 56.126 53.0784 56.126 53.0784C56.1725 53.0744 56.2286 52.9941 56.2404 52.9766Z" fill="#810016"/>
</g>
<path fill-rule="evenodd" clip-rule="evenodd" d="M58.5338 56.0374C60.2114 54.7211 60.471 52.3373 59.1135 50.713C57.756 49.0887 55.2955 48.839 53.6178 50.1553C51.9402 51.4717 51.6807 53.8555 53.0382 55.4798C54.3957 57.1041 56.8561 57.3538 58.5338 56.0374ZM58.321 55.7828C59.8534 54.5804 60.0904 52.403 58.8505 50.9193C57.6105 49.4356 55.3631 49.2076 53.8307 50.41C52.2983 51.6123 52.0612 53.7898 53.3012 55.2735C54.5411 56.7571 56.7886 56.9852 58.321 55.7828Z" fill="#BC0624"/>
<path fill-rule="evenodd" clip-rule="evenodd" d="M58.5338 56.0374C60.2114 54.7211 60.471 52.3373 59.1135 50.713C57.756 49.0887 55.2955 48.839 53.6178 50.1553C51.9402 51.4717 51.6807 53.8555 53.0382 55.4798C54.3957 57.1041 56.8561 57.3538 58.5338 56.0374ZM58.321 55.7828C59.8534 54.5804 60.0904 52.403 58.8505 50.9193C57.6105 49.4356 55.3631 49.2076 53.8307 50.41C52.2983 51.6123 52.0612 53.7898 53.3012 55.2735C54.5411 56.7571 56.7886 56.9852 58.321 55.7828Z" fill="url(#paint24_linear_113_989)"/>
</g>
<defs>
<filter id="filter0_d_113_989" x="0" y="0" width="126" height="172" filterUnits="userSpaceOnUse" color-interpolation-filters="sRGB">
<feFlood flood-opacity="0" result="BackgroundImageFix"/>
<feColorMatrix in="SourceAlpha" type="matrix" values="0 0 0 0 0 0 0 0 0 0 0 0 0 0 0 0 0 0 127 0" result="hardAlpha"/>
<feOffset dy="4"/>
<feGaussianBlur stdDeviation="2"/>
<feComposite in2="hardAlpha" operator="out"/>
<feColorMatrix type="matrix" values="0 0 0 0 0 0 0 0 0 0 0 0 0 0 0 0 0 0 0.25 0"/>
<feBlend mode="normal" in2="BackgroundImageFix" result="effect1_dropShadow_113_989"/>
<feBlend mode="normal" in="SourceGraphic" in2="effect1_dropShadow_113_989" result="shape"/>
</filter>
<filter id="filter1_f_113_989" x="52.9745" y="11.6862" width="11.6044" height="15.6522" filterUnits="userSpaceOnUse" color-interpolation-filters="sRGB">
<feFlood flood-opacity="0" result="BackgroundImageFix"/>
<feBlend mode="normal" in="SourceGraphic" in2="BackgroundImageFix" result="shape"/>
<feGaussianBlur stdDeviation="2" result="effect1_foregroundBlur_113_989"/>
</filter>
<filter id="filter2_i_113_989" x="52.8247" y="51.8009" width="2.34546" height="6.56219" filterUnits="userSpaceOnUse" color-interpolation-filters="sRGB">
<feFlood flood-opacity="0" result="BackgroundImageFix"/>
<feBlend mode="normal" in="SourceGraphic" in2="BackgroundImageFix" result="shape"/>
<feColorMatrix in="SourceAlpha" type="matrix" values="0 0 0 0 0 0 0 0 0 0 0 0 0 0 0 0 0 0 127 0" result="hardAlpha"/>
<feOffset dy="4"/>
<feGaussianBlur stdDeviation="2"/>
<feComposite in2="hardAlpha" operator="arithmetic" k2="-1" k3="1"/>
<feColorMatrix type="matrix" values="0 0 0 0 0 0 0 0 0 0 0 0 0 0 0 0 0 0 0.35 0"/>
<feBlend mode="normal" in2="shape" result="effect1_innerShadow_113_989"/>
</filter>
<filter id="filter3_i_113_989" x="56.0428" y="52.8683" width="0.485657" height="0.748657" filterUnits="userSpaceOnUse" color-interpolation-filters="sRGB">
<feFlood flood-opacity="0" result="BackgroundImageFix"/>
<feBlend mode="normal" in="SourceGraphic" in2="BackgroundImageFix" result="shape"/>
<feColorMatrix in="SourceAlpha" type="matrix" values="0 0 0 0 0 0 0 0 0 0 0 0 0 0 0 0 0 0 127 0" result="hardAlpha"/>
<feOffset dy="0.5"/>
<feGaussianBlur stdDeviation="0.25"/>
<feComposite in2="hardAlpha" operator="arithmetic" k2="-1" k3="1"/>
<feColorMatrix type="matrix" values="0 0 0 0 0 0 0 0 0 0 0 0 0 0 0 0 0 0 0.05 0"/>
<feBlend mode="normal" in2="shape" result="effect1_innerShadow_113_989"/>
</filter>
<filter id="filter4_i_113_989" x="57.5703" y="53.6565" width="0.6427" height="0.217493" filterUnits="userSpaceOnUse" color-interpolation-filters="sRGB">
<feFlood flood-opacity="0" result="BackgroundImageFix"/>
<feBlend mode="normal" in="SourceGraphic" in2="BackgroundImageFix" result="shape"/>
<feColorMatrix in="SourceAlpha" type="matrix" values="0 0 0 0 0 0 0 0 0 0 0 0 0 0 0 0 0 0 127 0" result="hardAlpha"/>
<feOffset dy="0.1"/>
<feGaussianBlur stdDeviation="0.05"/>
<feComposite in2="hardAlpha" operator="arithmetic" k2="-1" k3="1"/>
<feColorMatrix type="matrix" values="0 0 0 0 0 0 0 0 0 0 0 0 0 0 0 0 0 0 0.25 0"/>
<feBlend mode="normal" in2="shape" result="effect1_innerShadow_113_989"/>
</filter>
<filter id="filter5_i_113_989" x="53.7514" y="52.8934" width="1.10303" height="1.28644" filterUnits="userSpaceOnUse" color-interpolation-filters="sRGB">
<feFlood flood-opacity="0" result="BackgroundImageFix"/>
<feBlend mode="normal" in="SourceGraphic" in2="BackgroundImageFix" result="shape"/>
<feColorMatrix in="SourceAlpha" type="matrix" values="0 0 0 0 0 0 0 0 0 0 0 0 0 0 0 0 0 0 127 0" result="hardAlpha"/>
<feOffset dy="0.5"/>
<feGaussianBlur stdDeviation="0.75"/>
<feComposite in2="hardAlpha" operator="arithmetic" k2="-1" k3="1"/>
<feColorMatrix type="matrix" values="0 0 0 0 0 0 0 0 0 0 0 0 0 0 0 0 0 0 0.04 0"/>
<feBlend mode="normal" in2="shape" result="effect1_innerShadow_113_989"/>
</filter>
<filter id="filter6_i_113_989" x="56.126" y="52.9116" width="0.305115" height="0.272058" filterUnits="userSpaceOnUse" color-interpolation-filters="sRGB">
<feFlood flood-opacity="0" result="BackgroundImageFix"/>
<feBlend mode="normal" in="SourceGraphic" in2="BackgroundImageFix" result="shape"/>
<feColorMatrix in="SourceAlpha" type="matrix" values="0 0 0 0 0 0 0 0 0 0 0 0 0 0 0 0 0 0 127 0" result="hardAlpha"/>
<feOffset dy="0.1"/>
<feGaussianBlur stdDeviation="0.05"/>
<feComposite in2="hardAlpha" operator="arithmetic" k2="-1" k3="1"/>
<feColorMatrix type="matrix" values="0 0 0 0 0 0 0 0 0 0 0 0 0 0 0 0 0 0 0.25 0"/>
<feBlend mode="normal" in2="shape" result="effect1_innerShadow_113_989"/>
</filter>
<linearGradient id="paint0_linear_113_989" x1="50.3643" y1="38.6088" x2="26.4925" y2="52.1135" gradientUnits="userSpaceOnUse">
<stop stop-color="#778186"/>
<stop offset="1" stop-color="#474B4C"/>
</linearGradient>
<linearGradient id="paint1_linear_113_989" x1="50.7233" y1="39.6521" x2="27.7264" y2="52.4319" gradientUnits="userSpaceOnUse">
<stop stop-color="#C1C1C1"/>
<stop offset="1" stop-color="#929292"/>
</linearGradient>
<linearGradient id="paint2_linear_113_989" x1="74.954" y1="38.7827" x2="54.3531" y2="152.583" gradientUnits="userSpaceOnUse">
<stop stop-color="#D4853F"/>
<stop offset="1" stop-color="#D79962"/>
</linearGradient>
<linearGradient id="paint3_linear_113_989" x1="74.9545" y1="38.7827" x2="54.3537" y2="152.583" gradientUnits="userSpaceOnUse">
<stop stop-color="#A25D21"/>
<stop offset="1" stop-color="#D79962"/>
</linearGradient>
<linearGradient id="paint4_linear_113_989" x1="74.9543" y1="38.7827" x2="54.3533" y2="152.583" gradientUnits="userSpaceOnUse">
<stop stop-color="#995316"/>
<stop offset="1" stop-color="#D79962"/>
</linearGradient>
<linearGradient id="paint5_linear_113_989" x1="57.3642" y1="72.87" x2="60.5534" y2="71.2242" gradientUnits="userSpaceOnUse">
<stop stop-color="#6A4222"/>
<stop offset="1" stop-color="#D58947"/>
</linearGradient>
<linearGradient id="paint6_linear_113_989" x1="39.4158" y1="49.7394" x2="40.4325" y2="53.0622" gradientUnits="userSpaceOnUse">
<stop stop-color="#D48845"/>
<stop offset="1" stop-color="#4E3219"/>
</linearGradient>
<linearGradient id="paint7_linear_113_989" x1="55.3903" y1="42.2611" x2="57.7228" y2="42.0759" gradientUnits="userSpaceOnUse">
<stop stop-color="#D48641" stop-opacity="0"/>
<stop offset="1" stop-color="#4E3219"/>
</linearGradient>
<linearGradient id="paint8_linear_113_989" x1="31.6974" y1="64.5222" x2="32.824" y2="75.5105" gradientUnits="userSpaceOnUse">
<stop stop-color="#D58A49"/>
<stop offset="1" stop-color="#281709"/>
</linearGradient>
<linearGradient id="paint9_linear_113_989" x1="6.15387" y1="17.0436" x2="48.6234" y2="24.0713" gradientUnits="userSpaceOnUse">
<stop stop-color="#9F9F9F"/>
<stop offset="1" stop-color="#787877"/>
</linearGradient>
<linearGradient id="paint10_linear_113_989" x1="6.87158" y1="23.3044" x2="39.7165" y2="24.2306" gradientUnits="userSpaceOnUse">
<stop stop-color="#CBCBCB"/>
<stop offset="1" stop-color="#828380"/>
</linearGradient>
<linearGradient id="paint11_linear_113_989" x1="14.7943" y1="27.5125" x2="51.4087" y2="28.4386" gradientUnits="userSpaceOnUse">
<stop stop-color="#1B0A5D"/>
<stop offset="0.390625" stop-color="#1B0A5D"/>
<stop offset="0.970597" stop-color="#010005"/>
</linearGradient>
<linearGradient id="paint12_linear_113_989" x1="39.9227" y1="12.7299" x2="20.9613" y2="26.8633" gradientUnits="userSpaceOnUse">
<stop stop-color="#FFF9FF" stop-opacity="0.36"/>
<stop offset="1" stop-color="#1B0A5D" stop-opacity="0"/>
</linearGradient>
<linearGradient id="paint13_linear_113_989" x1="12.9744" y1="27.1304" x2="52.8209" y2="27.1304" gradientUnits="userSpaceOnUse">
<stop stop-color="#5B5C59"/>
<stop offset="1" stop-color="#3F403E"/>
</linearGradient>
<linearGradient id="paint14_linear_113_989" x1="53.4654" y1="52.1772" x2="54.1741" y2="53.0911" gradientUnits="userSpaceOnUse">
<stop stop-color="#A58C7A"/>
<stop offset="1" stop-color="#7B5C46" stop-opacity="0"/>
</linearGradient>
<linearGradient id="paint15_linear_113_989" x1="53.4653" y1="52.1772" x2="54.174" y2="53.0911" gradientUnits="userSpaceOnUse">
<stop stop-color="#A58C7A"/>
<stop offset="1" stop-color="#7B5C46" stop-opacity="0"/>
</linearGradient>
<linearGradient id="paint16_linear_113_989" x1="54.3669" y1="52.0365" x2="54.6875" y2="52.4451" gradientUnits="userSpaceOnUse">
<stop stop-color="#95614F"/>
<stop offset="1" stop-color="#372620" stop-opacity="0"/>
</linearGradient>
<linearGradient id="paint17_linear_113_989" x1="53.9066" y1="51.9922" x2="54.2859" y2="52.4755" gradientUnits="userSpaceOnUse">
<stop stop-color="#95614F"/>
<stop offset="1" stop-color="#372620" stop-opacity="0"/>
</linearGradient>
<linearGradient id="paint18_linear_113_989" x1="53.5497" y1="52.1158" x2="53.9097" y2="52.5747" gradientUnits="userSpaceOnUse">
<stop stop-color="#95614F"/>
<stop offset="1" stop-color="#372620" stop-opacity="0"/>
</linearGradient>
<linearGradient id="paint19_linear_113_989" x1="53.2769" y1="52.3281" x2="53.6025" y2="52.7429" gradientUnits="userSpaceOnUse">
<stop stop-color="#95614F"/>
<stop offset="1" stop-color="#372620" stop-opacity="0"/>
</linearGradient>
<linearGradient id="paint20_linear_113_989" x1="53.0948" y1="52.5614" x2="53.3868" y2="52.9335" gradientUnits="userSpaceOnUse">
<stop stop-color="#95614F"/>
<stop offset="1" stop-color="#372620" stop-opacity="0"/>
</linearGradient>
<linearGradient id="paint21_linear_113_989" x1="52.9461" y1="52.8636" x2="53.1999" y2="53.1871" gradientUnits="userSpaceOnUse">
<stop stop-color="#95614F"/>
<stop offset="1" stop-color="#372620" stop-opacity="0"/>
</linearGradient>
<linearGradient id="paint22_linear_113_989" x1="52.8815" y1="53.2114" x2="53.0904" y2="53.4775" gradientUnits="userSpaceOnUse">
<stop stop-color="#95614F"/>
<stop offset="1" stop-color="#372620" stop-opacity="0"/>
</linearGradient>
<linearGradient id="paint23_linear_113_989" x1="54.4454" y1="53.5955" x2="54.4712" y2="53.7849" gradientUnits="userSpaceOnUse">
<stop/>
<stop offset="1" stop-color="#BC0624"/>
</linearGradient>
<linearGradient id="paint24_linear_113_989" x1="56.039" y1="49.2019" x2="56.7182" y2="55.9121" gradientUnits="userSpaceOnUse">
<stop offset="0.0001" stop-color="#F44336"/>
<stop offset="1" stop-color="#BC0624" stop-opacity="0"/>
</linearGradient>
</defs>
</svg>
