<svg width="720" height="594" viewBox="0 0 720 594" fill="none" xmlns="http://www.w3.org/2000/svg">
<ellipse cx="26.5" cy="-0.450027" rx="0.5" ry="0.550003" fill="white"/>
<ellipse cx="101.5" cy="-0.450027" rx="0.499985" ry="0.550003" fill="white"/>
<ellipse cx="176.5" cy="-0.450027" rx="0.500031" ry="0.550003" fill="white"/>
<ellipse cx="251.5" cy="-0.450027" rx="0.499969" ry="0.550003" fill="white"/>
<ellipse cx="326.5" cy="-0.450027" rx="0.500031" ry="0.550003" fill="white"/>
<ellipse cx="401.5" cy="-0.450027" rx="0.500046" ry="0.550003" fill="white"/>
<ellipse cx="476.5" cy="-0.450027" rx="0.499908" ry="0.550003" fill="white"/>
<ellipse cx="551.5" cy="-0.450027" rx="0.499969" ry="0.550003" fill="white"/>
<ellipse cx="626.5" cy="-0.450027" rx="0.500031" ry="0.550003" fill="white"/>
<ellipse cx="61.5" cy="54.55" rx="0.499985" ry="0.550011" fill="white"/>
<ellipse cx="136.5" cy="54.55" rx="0.500015" ry="0.550011" fill="white"/>
<ellipse cx="211.5" cy="54.55" rx="0.499985" ry="0.550011" fill="white"/>
<ellipse cx="286.5" cy="54.55" rx="0.500015" ry="0.550011" fill="white"/>
<ellipse cx="361.5" cy="54.55" rx="0.500031" ry="0.550011" fill="white"/>
<ellipse cx="436.5" cy="54.55" rx="0.499954" ry="0.550011" fill="white"/>
<ellipse cx="511.5" cy="54.55" rx="0.499969" ry="0.550011" fill="white"/>
<ellipse cx="586.5" cy="54.55" rx="0.499908" ry="0.550011" fill="white"/>
<ellipse cx="661.5" cy="54.55" rx="0.499969" ry="0.550011" fill="white"/>
<ellipse cx="46.5" cy="109.55" rx="0.500006" ry="0.549973" fill="white"/>
<ellipse cx="121.5" cy="109.55" rx="0.5" ry="0.549973" fill="white"/>
<ellipse cx="196.5" cy="109.55" rx="0.500046" ry="0.549973" fill="white"/>
<ellipse cx="271.5" cy="109.55" rx="0.5" ry="0.549973" fill="white"/>
<ellipse cx="346.5" cy="109.55" rx="0.499954" ry="0.549973" fill="white"/>
<ellipse cx="421.5" cy="109.55" rx="0.5" ry="0.549973" fill="white"/>
<ellipse cx="496.5" cy="109.55" rx="0.499939" ry="0.549973" fill="white"/>
<ellipse cx="571.5" cy="109.55" rx="0.499969" ry="0.549973" fill="white"/>
<ellipse cx="646.5" cy="109.55" rx="0.499969" ry="0.549973" fill="white"/>
<ellipse cx="61.5" cy="164.55" rx="0.499985" ry="0.550003" fill="white"/>
<ellipse cx="136.5" cy="164.55" rx="0.500015" ry="0.550003" fill="white"/>
<ellipse cx="211.5" cy="164.55" rx="0.499985" ry="0.550003" fill="white"/>
<ellipse cx="286.5" cy="164.55" rx="0.500015" ry="0.550003" fill="white"/>
<ellipse cx="361.5" cy="164.55" rx="0.500031" ry="0.550003" fill="white"/>
<ellipse cx="436.5" cy="164.55" rx="0.499954" ry="0.550003" fill="white"/>
<ellipse cx="511.5" cy="164.55" rx="0.499969" ry="0.550003" fill="white"/>
<ellipse cx="586.5" cy="164.55" rx="0.499908" ry="0.550003" fill="white"/>
<ellipse cx="661.5" cy="164.55" rx="0.499969" ry="0.550003" fill="white"/>
<ellipse cx="36.5" cy="220.65" rx="0.500002" ry="0.550003" fill="white"/>
<ellipse cx="111.5" cy="220.65" rx="0.500031" ry="0.550003" fill="white"/>
<ellipse cx="186.5" cy="220.65" rx="0.5" ry="0.550003" fill="white"/>
<ellipse cx="261.5" cy="220.65" rx="0.500015" ry="0.550003" fill="white"/>
<ellipse cx="336.5" cy="220.65" rx="0.500015" ry="0.550003" fill="white"/>
<ellipse cx="411.5" cy="220.65" rx="0.500015" ry="0.550003" fill="white"/>
<ellipse cx="486.5" cy="220.65" rx="0.499954" ry="0.550003" fill="white"/>
<ellipse cx="561.5" cy="220.65" rx="0.5" ry="0.550003" fill="white"/>
<ellipse cx="636.5" cy="220.65" rx="0.499969" ry="0.550003" fill="white"/>
<ellipse cx="66.5" cy="275.65" rx="0.499992" ry="0.550003" fill="white"/>
<ellipse cx="141.5" cy="275.65" rx="0.5" ry="0.550003" fill="white"/>
<ellipse cx="216.5" cy="275.65" rx="0.500015" ry="0.550003" fill="white"/>
<ellipse cx="291.5" cy="275.65" rx="0.500015" ry="0.550003" fill="white"/>
<ellipse cx="366.5" cy="275.65" rx="0.500031" ry="0.550003" fill="white"/>
<ellipse cx="441.5" cy="275.65" rx="0.499954" ry="0.550003" fill="white"/>
<ellipse cx="516.5" cy="275.65" rx="0.5" ry="0.550003" fill="white"/>
<ellipse cx="591.5" cy="275.65" rx="0.499969" ry="0.550003" fill="white"/>
<ellipse cx="56.5" cy="330.65" rx="0.499996" ry="0.550003" fill="white"/>
<ellipse cx="131.5" cy="330.65" rx="0.500015" ry="0.550003" fill="white"/>
<ellipse cx="206.5" cy="330.65" rx="0.5" ry="0.550003" fill="white"/>
<ellipse cx="281.5" cy="330.65" rx="0.499985" ry="0.550003" fill="white"/>
<ellipse cx="356.5" cy="330.65" rx="0.500046" ry="0.550003" fill="white"/>
<ellipse cx="431.5" cy="330.65" rx="0.499954" ry="0.550003" fill="white"/>
<ellipse cx="506.5" cy="330.65" rx="0.5" ry="0.550003" fill="white"/>
<ellipse cx="581.5" cy="330.65" rx="0.500061" ry="0.550003" fill="white"/>
<ellipse cx="656.5" cy="330.65" rx="0.499969" ry="0.550003" fill="white"/>
<ellipse cx="11.5" cy="385.65" rx="0.5" ry="0.550079" fill="white"/>
<ellipse cx="86.5" cy="385.65" rx="0.499996" ry="0.550079" fill="white"/>
<ellipse cx="161.5" cy="385.65" rx="0.5" ry="0.550079" fill="white"/>
<ellipse cx="236.5" cy="385.65" rx="0.499954" ry="0.550079" fill="white"/>
<ellipse cx="311.5" cy="385.65" rx="0.5" ry="0.550079" fill="white"/>
<ellipse cx="386.5" cy="385.65" rx="0.499969" ry="0.550079" fill="white"/>
<ellipse cx="461.5" cy="385.65" rx="0.500031" ry="0.550079" fill="white"/>
<ellipse cx="536.5" cy="385.65" rx="0.500031" ry="0.550079" fill="white"/>
<ellipse cx="611.5" cy="385.65" rx="0.499969" ry="0.550079" fill="white"/>
<ellipse cx="686.5" cy="385.65" rx="0.5" ry="0.550079" fill="white"/>
<ellipse cx="46.5" cy="440.65" rx="0.500006" ry="0.549988" fill="white"/>
<ellipse cx="121.5" cy="440.65" rx="0.5" ry="0.549988" fill="white"/>
<ellipse cx="196.5" cy="440.65" rx="0.500046" ry="0.549988" fill="white"/>
<ellipse cx="271.5" cy="440.65" rx="0.5" ry="0.549988" fill="white"/>
<ellipse cx="346.5" cy="440.65" rx="0.499954" ry="0.549988" fill="white"/>
<ellipse cx="421.5" cy="440.65" rx="0.5" ry="0.549988" fill="white"/>
<ellipse cx="496.5" cy="440.65" rx="0.499939" ry="0.549988" fill="white"/>
<ellipse cx="571.5" cy="440.65" rx="0.499969" ry="0.549988" fill="white"/>
<ellipse cx="646.5" cy="440.65" rx="0.499969" ry="0.549988" fill="white"/>
<ellipse cx="61.5" cy="495.65" rx="0.499985" ry="0.549988" fill="white"/>
<ellipse cx="136.5" cy="495.65" rx="0.500015" ry="0.549988" fill="white"/>
<ellipse cx="211.5" cy="495.65" rx="0.499985" ry="0.549988" fill="white"/>
<ellipse cx="286.5" cy="495.65" rx="0.500015" ry="0.549988" fill="white"/>
<ellipse cx="361.5" cy="495.65" rx="0.500031" ry="0.549988" fill="white"/>
<ellipse cx="436.5" cy="495.65" rx="0.499954" ry="0.549988" fill="white"/>
<ellipse cx="511.5" cy="495.65" rx="0.499969" ry="0.549988" fill="white"/>
<ellipse cx="586.5" cy="495.65" rx="0.499908" ry="0.549988" fill="white"/>
<ellipse cx="661.5" cy="495.65" rx="0.499969" ry="0.549988" fill="white"/>
<ellipse cx="21.5" cy="556.15" rx="0.5" ry="0.550018" fill="white"/>
<ellipse cx="96.5" cy="556.15" rx="0.500031" ry="0.550018" fill="white"/>
<ellipse cx="171.5" cy="556.15" rx="0.5" ry="0.550018" fill="white"/>
<ellipse cx="246.5" cy="556.15" rx="0.500015" ry="0.550018" fill="white"/>
<ellipse cx="321.5" cy="556.15" rx="0.500015" ry="0.550018" fill="white"/>
<ellipse cx="396.5" cy="556.15" rx="0.499954" ry="0.550018" fill="white"/>
<ellipse cx="471.5" cy="556.15" rx="0.499969" ry="0.550018" fill="white"/>
<ellipse cx="546.5" cy="556.15" rx="0.5" ry="0.550018" fill="white"/>
<ellipse cx="621.5" cy="556.15" rx="0.5" ry="0.550018" fill="white"/>
<ellipse cx="696.5" cy="556.15" rx="0.5" ry="0.550018" fill="white"/>
<ellipse cx="51.5" cy="5.05" rx="0.500004" ry="0.550003" fill="white"/>
<ellipse cx="126.5" cy="5.05" rx="0.500008" ry="0.550003" fill="white"/>
<ellipse cx="201.5" cy="5.05" rx="0.5" ry="0.550003" fill="white"/>
<ellipse cx="276.5" cy="5.05" rx="0.500015" ry="0.550003" fill="white"/>
<ellipse cx="351.5" cy="5.05" rx="0.499939" ry="0.550003" fill="white"/>
<ellipse cx="426.5" cy="5.05" rx="0.499969" ry="0.550003" fill="white"/>
<ellipse cx="501.5" cy="5.05" rx="0.499969" ry="0.550003" fill="white"/>
<ellipse cx="576.5" cy="5.05" rx="0.500092" ry="0.550003" fill="white"/>
<ellipse cx="651.5" cy="5.05" rx="0.500061" ry="0.550003" fill="white"/>
<ellipse cx="11.5" cy="60.05" rx="0.5" ry="0.550011" fill="white"/>
<ellipse cx="86.5" cy="60.05" rx="0.499996" ry="0.550011" fill="white"/>
<ellipse cx="161.5" cy="60.05" rx="0.500015" ry="0.550011" fill="white"/>
<ellipse cx="236.5" cy="60.05" rx="0.499969" ry="0.550011" fill="white"/>
<ellipse cx="311.5" cy="60.05" rx="0.499985" ry="0.550011" fill="white"/>
<ellipse cx="386.5" cy="60.05" rx="0.499939" ry="0.550011" fill="white"/>
<ellipse cx="461.5" cy="60.05" rx="0.500015" ry="0.550011" fill="white"/>
<ellipse cx="536.5" cy="60.05" rx="0.499939" ry="0.550011" fill="white"/>
<ellipse cx="611.5" cy="60.05" rx="0.500031" ry="0.550011" fill="white"/>
<ellipse cx="686.5" cy="60.05" rx="0.500031" ry="0.550011" fill="white"/>
<ellipse cx="71.5" cy="115.05" rx="0.500008" ry="0.550003" fill="white"/>
<ellipse cx="146.5" cy="115.05" rx="0.5" ry="0.550003" fill="white"/>
<ellipse cx="221.5" cy="115.05" rx="0.500015" ry="0.550003" fill="white"/>
<ellipse cx="296.5" cy="115.05" rx="0.500015" ry="0.550003" fill="white"/>
<ellipse cx="371.5" cy="115.05" rx="0.500031" ry="0.550003" fill="white"/>
<ellipse cx="446.5" cy="115.05" rx="0.499985" ry="0.550003" fill="white"/>
<ellipse cx="521.5" cy="115.05" rx="0.500031" ry="0.550003" fill="white"/>
<ellipse cx="596.5" cy="115.05" rx="0.500031" ry="0.550003" fill="white"/>
<ellipse cx="671.5" cy="115.05" rx="0.499939" ry="0.550003" fill="white"/>
<ellipse cx="11.5" cy="170.05" rx="0.5" ry="0.550003" fill="white"/>
<ellipse cx="86.5" cy="170.05" rx="0.499996" ry="0.550003" fill="white"/>
<ellipse cx="161.5" cy="170.05" rx="0.500015" ry="0.550003" fill="white"/>
<ellipse cx="236.5" cy="170.05" rx="0.499969" ry="0.550003" fill="white"/>
<ellipse cx="311.5" cy="170.05" rx="0.499985" ry="0.550003" fill="white"/>
<ellipse cx="386.5" cy="170.05" rx="0.499939" ry="0.550003" fill="white"/>
<ellipse cx="461.5" cy="170.05" rx="0.500015" ry="0.550003" fill="white"/>
<ellipse cx="536.5" cy="170.05" rx="0.499939" ry="0.550003" fill="white"/>
<ellipse cx="611.5" cy="170.05" rx="0.500031" ry="0.550003" fill="white"/>
<ellipse cx="686.5" cy="170.05" rx="0.500031" ry="0.550003" fill="white"/>
<ellipse cx="61.5" cy="226.15" rx="0.5" ry="0.550018" fill="white"/>
<ellipse cx="136.5" cy="226.15" rx="0.500008" ry="0.550018" fill="white"/>
<ellipse cx="211.5" cy="226.15" rx="0.500008" ry="0.550018" fill="white"/>
<ellipse cx="286.5" cy="226.15" rx="0.5" ry="0.550018" fill="white"/>
<ellipse cx="361.5" cy="226.15" rx="0.500031" ry="0.550018" fill="white"/>
<ellipse cx="436.5" cy="226.15" rx="0.499954" ry="0.550018" fill="white"/>
<ellipse cx="511.5" cy="226.15" rx="0.500031" ry="0.550018" fill="white"/>
<ellipse cx="586.5" cy="226.15" rx="0.499939" ry="0.550018" fill="white"/>
<ellipse cx="661.5" cy="226.15" rx="0.499939" ry="0.550018" fill="white"/>
<ellipse cx="16.5" cy="281.15" rx="0.500006" ry="0.550049" fill="white"/>
<ellipse cx="91.5" cy="281.15" rx="0.499992" ry="0.550049" fill="white"/>
<ellipse cx="166.5" cy="281.15" rx="0.5" ry="0.550049" fill="white"/>
<ellipse cx="241.5" cy="281.15" rx="0.499985" ry="0.550049" fill="white"/>
<ellipse cx="316.5" cy="281.15" rx="0.5" ry="0.550049" fill="white"/>
<ellipse cx="391.5" cy="281.15" rx="0.499969" ry="0.550049" fill="white"/>
<ellipse cx="466.5" cy="281.15" rx="0.5" ry="0.550049" fill="white"/>
<ellipse cx="541.5" cy="281.15" rx="0.499939" ry="0.550049" fill="white"/>
<ellipse cx="616.5" cy="281.15" rx="0.5" ry="0.550049" fill="white"/>
<ellipse cx="6.5" cy="336.15" rx="0.499998" ry="0.550018" fill="white"/>
<ellipse cx="81.5" cy="336.15" rx="0.500004" ry="0.550018" fill="white"/>
<ellipse cx="156.5" cy="336.15" rx="0.500008" ry="0.550018" fill="white"/>
<ellipse cx="231.5" cy="336.15" rx="0.500015" ry="0.550018" fill="white"/>
<ellipse cx="306.5" cy="336.15" rx="0.500015" ry="0.550018" fill="white"/>
<ellipse cx="381.5" cy="336.15" rx="0.499969" ry="0.550018" fill="white"/>
<ellipse cx="456.5" cy="336.15" rx="0.499985" ry="0.550018" fill="white"/>
<ellipse cx="531.5" cy="336.15" rx="0.500031" ry="0.550018" fill="white"/>
<ellipse cx="606.5" cy="336.15" rx="0.5" ry="0.550018" fill="white"/>
<ellipse cx="681.5" cy="336.15" rx="0.499939" ry="0.550018" fill="white"/>
<ellipse cx="36.5" cy="391.15" rx="0.500006" ry="0.55014" fill="white"/>
<ellipse cx="111.5" cy="391.15" rx="0.500008" ry="0.55014" fill="white"/>
<ellipse cx="186.5" cy="391.15" rx="0.499992" ry="0.55014" fill="white"/>
<ellipse cx="261.5" cy="391.15" rx="0.5" ry="0.55014" fill="white"/>
<ellipse cx="336.5" cy="391.15" rx="0.499985" ry="0.55014" fill="white"/>
<ellipse cx="411.5" cy="391.15" rx="0.5" ry="0.55014" fill="white"/>
<ellipse cx="486.5" cy="391.15" rx="0.499969" ry="0.55014" fill="white"/>
<ellipse cx="561.5" cy="391.15" rx="0.500031" ry="0.55014" fill="white"/>
<ellipse cx="636.5" cy="391.15" rx="0.5" ry="0.55014" fill="white"/>
<ellipse cx="711.5" cy="390.05" rx="0.500031" ry="0.549988" fill="white"/>
<ellipse cx="71.5" cy="446.15" rx="0.500008" ry="0.550018" fill="white"/>
<ellipse cx="146.5" cy="446.15" rx="0.5" ry="0.550018" fill="white"/>
<ellipse cx="221.5" cy="446.15" rx="0.500015" ry="0.550018" fill="white"/>
<ellipse cx="296.5" cy="446.15" rx="0.500015" ry="0.550018" fill="white"/>
<ellipse cx="371.5" cy="446.15" rx="0.500031" ry="0.550018" fill="white"/>
<ellipse cx="446.5" cy="446.15" rx="0.499985" ry="0.550018" fill="white"/>
<ellipse cx="521.5" cy="446.15" rx="0.500031" ry="0.550018" fill="white"/>
<ellipse cx="596.5" cy="446.15" rx="0.500031" ry="0.550018" fill="white"/>
<ellipse cx="671.5" cy="446.15" rx="0.499939" ry="0.550018" fill="white"/>
<ellipse cx="11.5" cy="501.15" rx="0.5" ry="0.550018" fill="white"/>
<ellipse cx="86.5" cy="501.15" rx="0.499996" ry="0.550018" fill="white"/>
<ellipse cx="161.5" cy="501.15" rx="0.500015" ry="0.550018" fill="white"/>
<ellipse cx="236.5" cy="501.15" rx="0.499969" ry="0.550018" fill="white"/>
<ellipse cx="311.5" cy="501.15" rx="0.499985" ry="0.550018" fill="white"/>
<ellipse cx="386.5" cy="501.15" rx="0.499939" ry="0.550018" fill="white"/>
<ellipse cx="461.5" cy="501.15" rx="0.500015" ry="0.550018" fill="white"/>
<ellipse cx="536.5" cy="501.15" rx="0.499939" ry="0.550018" fill="white"/>
<ellipse cx="611.5" cy="501.15" rx="0.500031" ry="0.550018" fill="white"/>
<ellipse cx="686.5" cy="501.15" rx="0.500031" ry="0.550018" fill="white"/>
<ellipse cx="46.5" cy="561.65" rx="0.499996" ry="0.550018" fill="white"/>
<ellipse cx="121.5" cy="561.65" rx="0.500008" ry="0.550018" fill="white"/>
<ellipse cx="196.5" cy="561.65" rx="0.500031" ry="0.550018" fill="white"/>
<ellipse cx="271.5" cy="561.65" rx="0.5" ry="0.550018" fill="white"/>
<ellipse cx="346.5" cy="561.65" rx="0.499969" ry="0.550018" fill="white"/>
<ellipse cx="421.5" cy="561.65" rx="0.5" ry="0.550018" fill="white"/>
<ellipse cx="496.5" cy="561.65" rx="0.499939" ry="0.550018" fill="white"/>
<ellipse cx="571.5" cy="561.65" rx="0.5" ry="0.550018" fill="white"/>
<ellipse cx="646.5" cy="561.65" rx="0.500031" ry="0.550018" fill="white"/>
<ellipse cx="73.5" cy="27.05" rx="0.5" ry="0.549995" fill="white"/>
<ellipse cx="148.5" cy="27.05" rx="0.500015" ry="0.549995" fill="white"/>
<ellipse cx="223.5" cy="27.05" rx="0.500031" ry="0.549995" fill="white"/>
<ellipse cx="298.5" cy="27.05" rx="0.5" ry="0.549995" fill="white"/>
<ellipse cx="373.5" cy="27.05" rx="0.5" ry="0.549995" fill="white"/>
<ellipse cx="448.5" cy="27.05" rx="0.499985" ry="0.549995" fill="white"/>
<ellipse cx="523.5" cy="27.05" rx="0.500031" ry="0.549995" fill="white"/>
<ellipse cx="598.5" cy="27.05" rx="0.500061" ry="0.549995" fill="white"/>
<ellipse cx="33.5" cy="82.05" rx="0.499996" ry="0.550011" fill="white"/>
<ellipse cx="108.5" cy="82.05" rx="0.500008" ry="0.550011" fill="white"/>
<ellipse cx="183.5" cy="82.05" rx="0.499985" ry="0.550011" fill="white"/>
<ellipse cx="258.5" cy="82.05" rx="0.500015" ry="0.550011" fill="white"/>
<ellipse cx="333.5" cy="82.05" rx="0.500031" ry="0.550011" fill="white"/>
<ellipse cx="408.5" cy="82.05" rx="0.499969" ry="0.550011" fill="white"/>
<ellipse cx="483.5" cy="82.05" rx="0.500046" ry="0.550011" fill="white"/>
<ellipse cx="558.5" cy="82.05" rx="0.499969" ry="0.550011" fill="white"/>
<ellipse cx="633.5" cy="82.05" rx="0.499969" ry="0.550011" fill="white"/>
<ellipse cx="18.5" cy="137.05" rx="0.5" ry="0.549973" fill="white"/>
<ellipse cx="93.5" cy="137.05" rx="0.5" ry="0.549973" fill="white"/>
<ellipse cx="168.5" cy="137.05" rx="0.500031" ry="0.549973" fill="white"/>
<ellipse cx="243.5" cy="137.05" rx="0.500015" ry="0.549973" fill="white"/>
<ellipse cx="318.5" cy="137.05" rx="0.5" ry="0.549973" fill="white"/>
<ellipse cx="393.5" cy="137.05" rx="0.500061" ry="0.549973" fill="white"/>
<ellipse cx="468.5" cy="137.05" rx="0.499893" ry="0.549973" fill="white"/>
<ellipse cx="543.5" cy="137.05" rx="0.499969" ry="0.549973" fill="white"/>
<ellipse cx="618.5" cy="137.05" rx="0.5" ry="0.549973" fill="white"/>
<ellipse cx="33.5" cy="192.05" rx="0.499996" ry="0.550003" fill="white"/>
<ellipse cx="108.5" cy="192.05" rx="0.500008" ry="0.550003" fill="white"/>
<ellipse cx="183.5" cy="192.05" rx="0.499985" ry="0.550003" fill="white"/>
<ellipse cx="258.5" cy="192.05" rx="0.500015" ry="0.550003" fill="white"/>
<ellipse cx="333.5" cy="192.05" rx="0.500031" ry="0.550003" fill="white"/>
<ellipse cx="408.5" cy="192.05" rx="0.499969" ry="0.550003" fill="white"/>
<ellipse cx="483.5" cy="192.05" rx="0.500046" ry="0.550003" fill="white"/>
<ellipse cx="558.5" cy="192.05" rx="0.499969" ry="0.550003" fill="white"/>
<ellipse cx="633.5" cy="192.05" rx="0.499969" ry="0.550003" fill="white"/>
<ellipse cx="8.5" cy="248.15" rx="0.5" ry="0.550003" fill="white"/>
<ellipse cx="83.5" cy="248.15" rx="0.499985" ry="0.550003" fill="white"/>
<ellipse cx="158.5" cy="248.15" rx="0.500015" ry="0.550003" fill="white"/>
<ellipse cx="233.5" cy="248.15" rx="0.500031" ry="0.550003" fill="white"/>
<ellipse cx="308.5" cy="248.15" rx="0.499985" ry="0.550003" fill="white"/>
<ellipse cx="383.5" cy="248.15" rx="0.499939" ry="0.550003" fill="white"/>
<ellipse cx="458.5" cy="248.15" rx="0.500046" ry="0.550003" fill="white"/>
<ellipse cx="533.5" cy="248.15" rx="0.5" ry="0.550003" fill="white"/>
<ellipse cx="608.5" cy="248.15" rx="0.5" ry="0.550003" fill="white"/>
<ellipse cx="38.5" cy="303.15" rx="0.500006" ry="0.550018" fill="white"/>
<ellipse cx="113.5" cy="303.15" rx="0.500015" ry="0.550018" fill="white"/>
<ellipse cx="188.5" cy="303.15" rx="0.500031" ry="0.550018" fill="white"/>
<ellipse cx="263.5" cy="303.15" rx="0.499985" ry="0.550018" fill="white"/>
<ellipse cx="338.5" cy="303.15" rx="0.5" ry="0.550018" fill="white"/>
<ellipse cx="413.5" cy="303.15" rx="0.500031" ry="0.550018" fill="white"/>
<ellipse cx="488.5" cy="303.15" rx="0.500061" ry="0.550018" fill="white"/>
<ellipse cx="563.5" cy="303.15" rx="0.5" ry="0.550018" fill="white"/>
<ellipse cx="28.5" cy="358.15" rx="0.5" ry="0.550018" fill="white"/>
<ellipse cx="103.5" cy="358.15" rx="0.500008" ry="0.550018" fill="white"/>
<ellipse cx="178.5" cy="358.15" rx="0.5" ry="0.550018" fill="white"/>
<ellipse cx="253.5" cy="358.15" rx="0.5" ry="0.550018" fill="white"/>
<ellipse cx="328.5" cy="358.15" rx="0.5" ry="0.550018" fill="white"/>
<ellipse cx="403.5" cy="358.15" rx="0.5" ry="0.550018" fill="white"/>
<ellipse cx="478.5" cy="358.15" rx="0.499969" ry="0.550018" fill="white"/>
<ellipse cx="553.5" cy="358.15" rx="0.500061" ry="0.550018" fill="white"/>
<ellipse cx="628.5" cy="358.15" rx="0.5" ry="0.550018" fill="white"/>
<ellipse cx="58.5" cy="413.15" rx="0.499992" ry="0.549957" fill="white"/>
<ellipse cx="133.5" cy="413.15" rx="0.499969" ry="0.549957" fill="white"/>
<ellipse cx="208.5" cy="413.15" rx="0.500015" ry="0.549957" fill="white"/>
<ellipse cx="283.5" cy="413.15" rx="0.500015" ry="0.549957" fill="white"/>
<ellipse cx="358.5" cy="413.15" rx="0.499985" ry="0.549957" fill="white"/>
<ellipse cx="433.5" cy="413.15" rx="0.499969" ry="0.549957" fill="white"/>
<ellipse cx="508.5" cy="413.15" rx="0.500061" ry="0.549957" fill="white"/>
<ellipse cx="583.5" cy="413.15" rx="0.5" ry="0.549957" fill="white"/>
<ellipse cx="658.5" cy="413.15" rx="0.499969" ry="0.549957" fill="white"/>
<ellipse cx="18.5" cy="468.15" rx="0.5" ry="0.549988" fill="white"/>
<ellipse cx="93.5" cy="468.15" rx="0.5" ry="0.549988" fill="white"/>
<ellipse cx="168.5" cy="468.15" rx="0.500031" ry="0.549988" fill="white"/>
<ellipse cx="243.5" cy="468.15" rx="0.500015" ry="0.549988" fill="white"/>
<ellipse cx="318.5" cy="468.15" rx="0.5" ry="0.549988" fill="white"/>
<ellipse cx="393.5" cy="468.15" rx="0.500061" ry="0.549988" fill="white"/>
<ellipse cx="468.5" cy="468.15" rx="0.499893" ry="0.549988" fill="white"/>
<ellipse cx="543.5" cy="468.15" rx="0.499969" ry="0.549988" fill="white"/>
<ellipse cx="618.5" cy="468.15" rx="0.5" ry="0.549988" fill="white"/>
<ellipse cx="33.5" cy="523.15" rx="0.499996" ry="0.549927" fill="white"/>
<ellipse cx="108.5" cy="523.15" rx="0.500008" ry="0.549927" fill="white"/>
<ellipse cx="183.5" cy="523.15" rx="0.499985" ry="0.549927" fill="white"/>
<ellipse cx="258.5" cy="523.15" rx="0.500015" ry="0.549927" fill="white"/>
<ellipse cx="333.5" cy="523.15" rx="0.500031" ry="0.549927" fill="white"/>
<ellipse cx="408.5" cy="523.15" rx="0.499969" ry="0.549927" fill="white"/>
<ellipse cx="483.5" cy="523.15" rx="0.500046" ry="0.549927" fill="white"/>
<ellipse cx="558.5" cy="523.15" rx="0.499969" ry="0.549927" fill="white"/>
<ellipse cx="633.5" cy="523.15" rx="0.499969" ry="0.549927" fill="white"/>
<ellipse cx="68.5" cy="583.65" rx="0.499992" ry="0.550018" fill="white"/>
<ellipse cx="143.5" cy="583.65" rx="0.499969" ry="0.550018" fill="white"/>
<ellipse cx="218.5" cy="583.65" rx="0.499985" ry="0.550018" fill="white"/>
<ellipse cx="293.5" cy="583.65" rx="0.500015" ry="0.550018" fill="white"/>
<ellipse cx="368.5" cy="583.65" rx="0.500046" ry="0.550018" fill="white"/>
<ellipse cx="443.5" cy="583.65" rx="0.499985" ry="0.550018" fill="white"/>
<ellipse cx="518.5" cy="583.65" rx="0.5" ry="0.550018" fill="white"/>
<ellipse cx="593.5" cy="583.65" rx="0.500031" ry="0.550018" fill="white"/>
<ellipse cx="668.5" cy="583.65" rx="0.5" ry="0.550018" fill="white"/>
<ellipse cx="110.5" cy="82.6" rx="0.999992" ry="1.09997" fill="white"/>
<ellipse cx="260.5" cy="77.1" rx="0.999969" ry="1.1" fill="white"/>
<ellipse cx="410.5" cy="71.6" rx="1.00003" ry="1.09999" fill="white"/>
<ellipse cx="560.5" cy="77.1" rx="0.999969" ry="1.1" fill="white"/>
<ellipse cx="710.5" cy="82.6" rx="1" ry="1.09997" fill="white"/>
<ellipse cx="20.5" cy="187.1" rx="0.999998" ry="1.10002" fill="white"/>
<ellipse cx="170.5" cy="192.6" rx="1.00002" ry="1.10001" fill="white"/>
<ellipse cx="320.5" cy="187.1" rx="0.999969" ry="1.10002" fill="white"/>
<ellipse cx="470.5" cy="181.6" rx="0.999969" ry="1.10001" fill="white"/>
<ellipse cx="620.5" cy="187.1" rx="1.00003" ry="1.10002" fill="white"/>
<ellipse cx="145.5" cy="303.7" rx="1" ry="1.10001" fill="white"/>
<ellipse cx="295.5" cy="298.2" rx="1" ry="1.09999" fill="white"/>
<ellipse cx="445.5" cy="292.7" rx="0.999969" ry="1.09999" fill="white"/>
<ellipse cx="595.5" cy="298.2" rx="0.999969" ry="1.09999" fill="white"/>
<ellipse cx="665.5" cy="281.7" rx="1.00006" ry="1.09998" fill="white"/>
<ellipse cx="120.5" cy="413.7" rx="1.00001" ry="1.09995" fill="white"/>
<ellipse cx="270.5" cy="408.2" rx="1.00003" ry="1.09998" fill="white"/>
<ellipse cx="420.5" cy="402.7" rx="1.00003" ry="1.09998" fill="white"/>
<ellipse cx="570.5" cy="408.2" rx="1.00003" ry="1.09998" fill="white"/>
<ellipse cx="720.5" cy="412.6" rx="0.999969" ry="1.09991" fill="white"/>
<ellipse cx="50.5" cy="518.2" rx="1.00001" ry="1.10001" fill="white"/>
<ellipse cx="200.5" cy="523.7" rx="1.00001" ry="1.10004" fill="white"/>
<ellipse cx="350.5" cy="518.2" rx="1" ry="1.10001" fill="white"/>
<ellipse cx="500.5" cy="512.7" rx="1.00003" ry="1.10001" fill="white"/>
<ellipse cx="650.5" cy="518.2" rx="0.999939" ry="1.10001" fill="white"/>
<ellipse cx="70.5" cy="33.1" rx="1" ry="1.09999" fill="white"/>
<ellipse cx="220.5" cy="27.6" rx="0.999954" ry="1.10001" fill="white"/>
<ellipse cx="370.5" cy="22.1" rx="1.00003" ry="1.1" fill="white"/>
<ellipse cx="520.5" cy="27.6" rx="1.00006" ry="1.10001" fill="white"/>
<ellipse cx="670.5" cy="33.1" rx="0.999969" ry="1.09999" fill="white"/>
<ellipse cx="40.5" cy="143.1" rx="1" ry="1.09999" fill="white"/>
<ellipse cx="190.5" cy="137.6" rx="1" ry="1.09999" fill="white"/>
<ellipse cx="340.5" cy="132.1" rx="1.00002" ry="1.09999" fill="white"/>
<ellipse cx="490.5" cy="137.6" rx="0.999969" ry="1.09999" fill="white"/>
<ellipse cx="640.5" cy="143.1" rx="1" ry="1.09999" fill="white"/>
<ellipse cx="100.5" cy="254.2" rx="1" ry="1.09998" fill="white"/>
<ellipse cx="250.5" cy="248.7" rx="1" ry="1.10001" fill="white"/>
<ellipse cx="400.5" cy="243.2" rx="0.999985" ry="1.10002" fill="white"/>
<ellipse cx="550.5" cy="248.7" rx="0.999939" ry="1.10001" fill="white"/>
<ellipse cx="700.5" cy="253.1" rx="1.00006" ry="1.09998" fill="white"/>
<ellipse cx="75.5" cy="364.2" rx="0.999989" ry="1.10004" fill="white"/>
<ellipse cx="225.5" cy="358.7" rx="1" ry="1.10002" fill="white"/>
<ellipse cx="375.5" cy="353.2" rx="1.00006" ry="1.10001" fill="white"/>
<ellipse cx="525.5" cy="358.7" rx="1.00006" ry="1.10002" fill="white"/>
<ellipse cx="675.5" cy="364.2" rx="0.999969" ry="1.10004" fill="white"/>
<ellipse cx="50.5" cy="474.2" rx="1" ry="1.10001" fill="white"/>
<ellipse cx="200.5" cy="468.7" rx="1" ry="1.10004" fill="white"/>
<ellipse cx="350.5" cy="463.2" rx="1" ry="1.10001" fill="white"/>
<ellipse cx="500.5" cy="468.7" rx="0.999969" ry="1.10004" fill="white"/>
<ellipse cx="650.5" cy="474.2" rx="0.999969" ry="1.10001" fill="white"/>
<ellipse cx="130.5" cy="584.2" rx="0.999969" ry="1.09998" fill="white"/>
<ellipse cx="280.5" cy="578.7" rx="1" ry="1.10004" fill="white"/>
<ellipse cx="430.5" cy="573.2" rx="0.999924" ry="1.10004" fill="white"/>
<ellipse cx="580.5" cy="578.7" rx="1" ry="1.10004" fill="white"/>
</svg>
